<svg xmlns="http://www.w3.org/2000/svg" xmlns:xlink="http://www.w3.org/1999/xlink" contentStyleType="text/css" data-diagram-type="DESCRIPTION" height="1657px" preserveAspectRatio="none" style="width:1763px;height:1657px;background:#FFFFFF;" version="1.1" viewBox="0 0 1763 1657" width="1763px" zoomAndPan="magnify"><title>Kraken &#8212; Component Diagram</title><defs/><g><g class="title" data-source-line="3"><text fill="#000000" font-family="sans-serif" font-size="14" font-weight="bold" lengthAdjust="spacing" textLength="241.6641" x="753.668" y="22.9951">Kraken &#8212; Component Diagram</text></g><!--cluster K--><g class="cluster" data-entity="K" data-source-line="18" data-uid="ent0004" id="cluster_K"><path d="M8.5,135.0869 L65.4727,135.0869 A3.75,3.75 0 0 1 67.9727,137.5869 L74.9727,157.3837 L1259.5,157.3837 A2.5,2.5 0 0 1 1262,159.8837 L1262,1512.3769 A2.5,2.5 0 0 1 1259.5,1514.8769 L8.5,1514.8769 A2.5,2.5 0 0 1 6,1512.3769 L6,137.5869 A2.5,2.5 0 0 1 8.5,135.0869" fill="none" style="stroke:#000000;stroke-width:1.5;"/><line style="stroke:#000000;stroke-width:1.5;" x1="6" x2="74.9727" y1="157.3837" y2="157.3837"/><text fill="#000000" font-family="sans-serif" font-size="14" font-weight="bold" lengthAdjust="spacing" textLength="55.9727" x="10" y="150.082">Kraken</text></g><!--cluster L1--><g class="cluster" data-entity="L1" data-source-line="20" data-uid="ent0005" id="cluster_L1"><path d="M32.5,1080.2769 L91.7627,1080.2769 A3.75,3.75 0 0 1 94.2627,1082.7769 L101.2627,1102.5738 L219.5,1102.5738 A2.5,2.5 0 0 1 222,1105.0738 L222,1488.3769 A2.5,2.5 0 0 1 219.5,1490.8769 L32.5,1490.8769 A2.5,2.5 0 0 1 30,1488.3769 L30,1082.7769 A2.5,2.5 0 0 1 32.5,1080.2769" fill="none" style="stroke:#000000;stroke-width:1.5;"/><line style="stroke:#000000;stroke-width:1.5;" x1="30" x2="101.2627" y1="1102.5738" y2="1102.5738"/><text fill="#000000" font-family="sans-serif" font-size="14" font-weight="bold" lengthAdjust="spacing" textLength="58.2627" x="34" y="1095.272">Ingress</text></g><!--cluster L2--><g class="cluster" data-entity="L2" data-source-line="26" data-uid="ent0009" id="cluster_L2"><path d="M551.5,779.9869 L625.0498,779.9869 A3.75,3.75 0 0 1 627.5498,782.4869 L634.5498,802.2838 L676.5,802.2838 A2.5,2.5 0 0 1 679,804.7838 L679,1053.7769 A2.5,2.5 0 0 1 676.5,1056.2769 L551.5,1056.2769 A2.5,2.5 0 0 1 549,1053.7769 L549,782.4869 A2.5,2.5 0 0 1 551.5,779.9869" fill="none" style="stroke:#000000;stroke-width:1.5;"/><line style="stroke:#000000;stroke-width:1.5;" x1="549" x2="634.5498" y1="802.2838" y2="802.2838"/><text fill="#000000" font-family="sans-serif" font-size="14" font-weight="bold" lengthAdjust="spacing" textLength="72.5498" x="553" y="794.982">Scanning</text></g><!--cluster L3--><g class="cluster" data-entity="L3" data-source-line="31" data-uid="ent0012" id="cluster_L3"><path d="M248.5,494.6869 L326.9307,494.6869 A3.75,3.75 0 0 1 329.4307,497.1869 L336.4307,516.9838 L522.5,516.9838 A2.5,2.5 0 0 1 525,519.4838 L525,1186.7769 A2.5,2.5 0 0 1 522.5,1189.2769 L248.5,1189.2769 A2.5,2.5 0 0 1 246,1186.7769 L246,497.1869 A2.5,2.5 0 0 1 248.5,494.6869" fill="none" style="stroke:#000000;stroke-width:1.5;"/><line style="stroke:#000000;stroke-width:1.5;" x1="246" x2="336.4307" y1="516.9838" y2="516.9838"/><text fill="#000000" font-family="sans-serif" font-size="14" font-weight="bold" lengthAdjust="spacing" textLength="77.4307" x="250" y="509.682">Execution</text></g><!--cluster L4--><g class="cluster" data-entity="L4" data-source-line="40" data-uid="ent0019" id="cluster_L4"><path d="M122.5,178.0869 L201.7988,178.0869 A3.75,3.75 0 0 1 204.2988,180.5869 L211.2988,200.3837 L502.5,200.3837 A2.5,2.5 0 0 1 505,202.8837 L505,468.1869 A2.5,2.5 0 0 1 502.5,470.6869 L122.5,470.6869 A2.5,2.5 0 0 1 120,468.1869 L120,180.5869 A2.5,2.5 0 0 1 122.5,178.0869" fill="none" style="stroke:#000000;stroke-width:1.5;"/><line style="stroke:#000000;stroke-width:1.5;" x1="120" x2="211.2988" y1="200.3837" y2="200.3837"/><text fill="#000000" font-family="sans-serif" font-size="14" font-weight="bold" lengthAdjust="spacing" textLength="78.2988" x="124" y="193.082">Reporting</text></g><!--cluster L5--><g class="cluster" data-entity="L5" data-source-line="46" data-uid="ent0023" id="cluster_L5"><path d="M531.5,178.0869 L630.3086,178.0869 A3.75,3.75 0 0 1 632.8086,180.5869 L639.8086,200.3837 L678.5,200.3837 A2.5,2.5 0 0 1 681,202.8837 L681,460.0369 A2.5,2.5 0 0 1 678.5,462.5369 L531.5,462.5369 A2.5,2.5 0 0 1 529,460.0369 L529,180.5869 A2.5,2.5 0 0 1 531.5,178.0869" fill="none" style="stroke:#000000;stroke-width:1.5;"/><line style="stroke:#000000;stroke-width:1.5;" x1="529" x2="639.8086" y1="200.3837" y2="200.3837"/><text fill="#000000" font-family="sans-serif" font-size="14" font-weight="bold" lengthAdjust="spacing" textLength="97.8086" x="533" y="193.082">Attack Logic</text></g><!--cluster L6--><g class="cluster" data-entity="L6" data-source-line="51" data-uid="ent0026" id="cluster_L6"><path d="M718.5,779.9869 L910.0244,779.9869 A3.75,3.75 0 0 1 912.5244,782.4869 L919.5244,802.2838 L1235.5,802.2838 A2.5,2.5 0 0 1 1238,804.7838 L1238,1186.7769 A2.5,2.5 0 0 1 1235.5,1189.2769 L718.5,1189.2769 A2.5,2.5 0 0 1 716,1186.7769 L716,782.4869 A2.5,2.5 0 0 1 718.5,779.9869" fill="none" style="stroke:#000000;stroke-width:1.5;"/><line style="stroke:#000000;stroke-width:1.5;" x1="716" x2="919.5244" y1="802.2838" y2="802.2838"/><text fill="#000000" font-family="sans-serif" font-size="14" font-weight="bold" lengthAdjust="spacing" textLength="190.5244" x="720" y="794.982">Control Plane (Web API)</text></g><!--cluster EXT--><g class="cluster" data-entity="EXT" data-source-line="61" data-uid="ent0033" id="cluster_EXT"><path d="M1288.5,1259.2769 L1426.4375,1259.2769 A3.75,3.75 0 0 1 1428.9375,1261.7769 L1435.9375,1281.5738 L1753.5,1281.5738 A2.5,2.5 0 0 1 1756,1284.0738 L1756,1370.3769 A2.5,2.5 0 0 1 1753.5,1372.8769 L1288.5,1372.8769 A2.5,2.5 0 0 1 1286,1370.3769 L1286,1261.7769 A2.5,2.5 0 0 1 1288.5,1259.2769" fill="none" style="stroke:#000000;stroke-width:1.5;"/><line style="stroke:#000000;stroke-width:1.5;" x1="1286" x2="1435.9375" y1="1281.5738" y2="1281.5738"/><text fill="#000000" font-family="sans-serif" font-size="14" font-weight="bold" lengthAdjust="spacing" textLength="136.9375" x="1290" y="1274.272">External Modules</text></g><!--entity PARSE--><g class="entity" data-entity="PARSE" data-source-line="21" data-uid="ent0006" id="entity_PARSE"><rect fill="#F1F1F1" height="46.2969" rx="2.5" ry="2.5" style="stroke:#181818;stroke-width:0.5;" width="159.998" x="46" y="1302.4269"/><rect fill="#F1F1F1" height="10" style="stroke:#181818;stroke-width:0.5;" width="15" x="185.998" y="1307.4269"/><rect fill="#F1F1F1" height="2" style="stroke:#181818;stroke-width:0.5;" width="4" x="183.998" y="1309.4269"/><rect fill="#F1F1F1" height="2" style="stroke:#181818;stroke-width:0.5;" width="4" x="183.998" y="1313.4269"/><text fill="#000000" font-family="sans-serif" font-size="14" lengthAdjust="spacing" textLength="119.998" x="61" y="1335.422">Campaign Parser</text></g><!--entity ICampaignYAML--><g class="entity" data-entity="ICampaignYAML" data-source-line="22" data-uid="ent0007" id="entity_ICampaignYAML"><ellipse cx="126" cy="1445.8769" fill="#F1F1F1" rx="8" ry="8" style="stroke:#181818;stroke-width:0.5;"/><text fill="#000000" font-family="sans-serif" font-size="14" lengthAdjust="spacing" textLength="113.2441" x="69.3779" y="1475.872">ICampaignYAML</text></g><!--entity ICampaignSpec--><g class="entity" data-entity="ICampaignSpec" data-source-line="23" data-uid="ent0008" id="entity_ICampaignSpec"><ellipse cx="144" cy="1144.2769" fill="#F1F1F1" rx="8" ry="8" style="stroke:#181818;stroke-width:0.5;"/><text fill="#000000" font-family="sans-serif" font-size="14" lengthAdjust="spacing" textLength="109.3203" x="89.3398" y="1174.272">ICampaignSpec</text></g><!--entity SCN--><g class="entity" data-entity="SCN" data-source-line="27" data-uid="ent0010" id="entity_SCN"><rect fill="#F1F1F1" height="46.2969" rx="2.5" ry="2.5" style="stroke:#181818;stroke-width:0.5;" width="97.2783" x="565.36" y="993.9869"/><rect fill="#F1F1F1" height="10" style="stroke:#181818;stroke-width:0.5;" width="15" x="642.6383" y="998.9869"/><rect fill="#F1F1F1" height="2" style="stroke:#181818;stroke-width:0.5;" width="4" x="640.6383" y="1000.9869"/><rect fill="#F1F1F1" height="2" style="stroke:#181818;stroke-width:0.5;" width="4" x="640.6383" y="1004.9869"/><text fill="#000000" font-family="sans-serif" font-size="14" lengthAdjust="spacing" textLength="57.2783" x="580.36" y="1026.982">Scanner</text></g><!--entity ITargets--><g class="entity" data-entity="ITargets" data-source-line="28" data-uid="ent0011" id="entity_ITargets"><ellipse cx="607" cy="843.9869" fill="#F1F1F1" rx="8" ry="8" style="stroke:#181818;stroke-width:0.5;"/><text fill="#000000" font-family="sans-serif" font-size="14" lengthAdjust="spacing" textLength="57.2988" x="578.3506" y="873.982">ITargets</text></g><!--entity RUN--><g class="entity" data-entity="RUN" data-source-line="32" data-uid="ent0013" id="entity_RUN"><rect fill="#F1F1F1" height="46.2969" rx="2.5" ry="2.5" style="stroke:#181818;stroke-width:0.5;" width="90.7158" x="392.64" y="708.6869"/><rect fill="#F1F1F1" height="10" style="stroke:#181818;stroke-width:0.5;" width="15" x="463.3558" y="713.6869"/><rect fill="#F1F1F1" height="2" style="stroke:#181818;stroke-width:0.5;" width="4" x="461.3558" y="715.6869"/><rect fill="#F1F1F1" height="2" style="stroke:#181818;stroke-width:0.5;" width="4" x="461.3558" y="719.6869"/><text fill="#000000" font-family="sans-serif" font-size="14" lengthAdjust="spacing" textLength="50.7158" x="407.64" y="741.682">Runner</text></g><!--entity EXEC--><g class="entity" data-entity="EXEC" data-source-line="33" data-uid="ent0014" id="entity_EXEC"><rect fill="#F1F1F1" height="46.2969" rx="2.5" ry="2.5" style="stroke:#181818;stroke-width:0.5;" width="157.4824" x="351.26" y="993.9869"/><rect fill="#F1F1F1" height="10" style="stroke:#181818;stroke-width:0.5;" width="15" x="488.7424" y="998.9869"/><rect fill="#F1F1F1" height="2" style="stroke:#181818;stroke-width:0.5;" width="4" x="486.7424" y="1000.9869"/><rect fill="#F1F1F1" height="2" style="stroke:#181818;stroke-width:0.5;" width="4" x="486.7424" y="1004.9869"/><text fill="#000000" font-family="sans-serif" font-size="14" lengthAdjust="spacing" textLength="117.4824" x="366.26" y="1026.982">Module Executor</text></g><!--entity IModuleExecutor--><g class="entity" data-entity="IModuleExecutor" data-source-line="34" data-uid="ent0015" id="entity_IModuleExecutor"><ellipse cx="436" cy="843.9869" fill="#F1F1F1" rx="8" ry="8" style="stroke:#181818;stroke-width:0.5;"/><text fill="#000000" font-family="sans-serif" font-size="14" lengthAdjust="spacing" textLength="117.1611" x="377.4194" y="873.982">IModuleExecutor</text></g><!--entity IModule--><g class="entity" data-entity="IModule" data-source-line="35" data-uid="ent0016" id="entity_IModule"><ellipse cx="474" cy="1144.2769" fill="#F1F1F1" rx="8" ry="8" style="stroke:#181818;stroke-width:0.5;"/><text fill="#000000" font-family="sans-serif" font-size="14" lengthAdjust="spacing" textLength="55.0361" x="446.4819" y="1174.272">IModule</text></g><!--entity IResults--><g class="entity" data-entity="IResults" data-source-line="36" data-uid="ent0017" id="entity_IResults"><ellipse cx="297" cy="558.6869" fill="#F1F1F1" rx="8" ry="8" style="stroke:#181818;stroke-width:0.5;"/><text fill="#000000" font-family="sans-serif" font-size="14" lengthAdjust="spacing" textLength="55.3096" x="269.3452" y="588.682">IResults</text></g><!--entity IModuleAssertions--><g class="entity" data-entity="IModuleAssertions" data-source-line="37" data-uid="ent0018" id="entity_IModuleAssertions"><ellipse cx="438" cy="558.6869" fill="#F1F1F1" rx="8" ry="8" style="stroke:#181818;stroke-width:0.5;"/><text fill="#000000" font-family="sans-serif" font-size="14" lengthAdjust="spacing" textLength="127.6816" x="374.1592" y="588.682">IModuleAssertions</text></g><!--entity REP_JSON--><g class="entity" data-entity="REP_JSON" data-source-line="41" data-uid="ent0020" id="entity_REP_JSON"><rect fill="#F1F1F1" height="62.5938" rx="2.5" ry="2.5" style="stroke:#181818;stroke-width:0.5;" width="140.3652" x="135.82" y="392.0869"/><rect fill="#F1F1F1" height="10" style="stroke:#181818;stroke-width:0.5;" width="15" x="256.1852" y="397.0869"/><rect fill="#F1F1F1" height="2" style="stroke:#181818;stroke-width:0.5;" width="4" x="254.1852" y="399.0869"/><rect fill="#F1F1F1" height="2" style="stroke:#181818;stroke-width:0.5;" width="4" x="254.1852" y="403.0869"/><text fill="#000000" font-family="sans-serif" font-size="14" font-style="italic" lengthAdjust="spacing" textLength="74.5664" x="163.7194" y="425.082">&#171;reporter&#187;</text><text fill="#000000" font-family="sans-serif" font-size="14" lengthAdjust="spacing" textLength="100.3652" x="150.82" y="441.3789">JSON Reporter</text></g><!--entity REP_MD--><g class="entity" data-entity="REP_MD" data-source-line="42" data-uid="ent0021" id="entity_REP_MD"><rect fill="#F1F1F1" height="62.5938" rx="2.5" ry="2.5" style="stroke:#181818;stroke-width:0.5;" width="178.1543" x="310.92" y="392.0869"/><rect fill="#F1F1F1" height="10" style="stroke:#181818;stroke-width:0.5;" width="15" x="469.0743" y="397.0869"/><rect fill="#F1F1F1" height="2" style="stroke:#181818;stroke-width:0.5;" width="4" x="467.0743" y="399.0869"/><rect fill="#F1F1F1" height="2" style="stroke:#181818;stroke-width:0.5;" width="4" x="467.0743" y="403.0869"/><text fill="#000000" font-family="sans-serif" font-size="14" font-style="italic" lengthAdjust="spacing" textLength="74.5664" x="357.7139" y="425.082">&#171;reporter&#187;</text><text fill="#000000" font-family="sans-serif" font-size="14" lengthAdjust="spacing" textLength="138.1543" x="325.92" y="441.3789">Markdown Reporter</text></g><!--entity IReport--><g class="entity" data-entity="IReport" data-source-line="43" data-uid="ent0022" id="entity_IReport"><ellipse cx="400" cy="242.0869" fill="#F1F1F1" rx="8" ry="8" style="stroke:#181818;stroke-width:0.5;"/><text fill="#000000" font-family="sans-serif" font-size="14" lengthAdjust="spacing" textLength="51.167" x="374.4165" y="272.082">IReport</text></g><!--entity ATK--><g class="entity" data-entity="ATK" data-source-line="47" data-uid="ent0024" id="entity_ATK"><rect fill="#F1F1F1" height="46.2969" rx="2.5" ry="2.5" style="stroke:#181818;stroke-width:0.5;" width="120.9238" x="544.54" y="400.2369"/><rect fill="#F1F1F1" height="10" style="stroke:#181818;stroke-width:0.5;" width="15" x="645.4638" y="405.2369"/><rect fill="#F1F1F1" height="2" style="stroke:#181818;stroke-width:0.5;" width="4" x="643.4638" y="407.2369"/><rect fill="#F1F1F1" height="2" style="stroke:#181818;stroke-width:0.5;" width="4" x="643.4638" y="411.2369"/><text fill="#000000" font-family="sans-serif" font-size="14" lengthAdjust="spacing" textLength="80.9238" x="559.54" y="433.232">Attack Tree</text></g><!--entity IAttackReport--><g class="entity" data-entity="IAttackReport" data-source-line="48" data-uid="ent0025" id="entity_IAttackReport"><ellipse cx="605" cy="242.0869" fill="#F1F1F1" rx="8" ry="8" style="stroke:#181818;stroke-width:0.5;"/><text fill="#000000" font-family="sans-serif" font-size="14" lengthAdjust="spacing" textLength="96.1064" x="556.9468" y="272.082">IAttackReport</text></g><!--entity WEB--><g class="entity" data-entity="WEB" data-source-line="52" data-uid="ent0027" id="entity_WEB"><rect fill="#F1F1F1" height="46.2969" rx="2.5" ry="2.5" style="stroke:#181818;stroke-width:0.5;" width="97.9414" x="868.03" y="993.9869"/><rect fill="#F1F1F1" height="10" style="stroke:#181818;stroke-width:0.5;" width="15" x="945.9714" y="998.9869"/><rect fill="#F1F1F1" height="2" style="stroke:#181818;stroke-width:0.5;" width="4" x="943.9714" y="1000.9869"/><rect fill="#F1F1F1" height="2" style="stroke:#181818;stroke-width:0.5;" width="4" x="943.9714" y="1004.9869"/><text fill="#000000" font-family="sans-serif" font-size="14" lengthAdjust="spacing" textLength="57.9414" x="883.03" y="1026.982">Web API</text></g><!--entity IWebCommands--><g class="entity" data-entity="IWebCommands" data-source-line="53" data-uid="ent0028" id="entity_IWebCommands"><ellipse cx="1157" cy="843.9869" fill="#F1F1F1" rx="8" ry="8" style="stroke:#181818;stroke-width:0.5;"/><text fill="#000000" font-family="sans-serif" font-size="14" lengthAdjust="spacing" textLength="114.7207" x="1099.6396" y="873.982">IWebCommands</text></g><!--entity IScannerCmd--><g class="entity" data-entity="IScannerCmd" data-source-line="54" data-uid="ent0029" id="entity_IScannerCmd"><ellipse cx="806" cy="843.9869" fill="#F1F1F1" rx="8" ry="8" style="stroke:#181818;stroke-width:0.5;"/><text fill="#000000" font-family="sans-serif" font-size="14" lengthAdjust="spacing" textLength="133.3623" x="739.3188" y="873.982">IScannerCommand</text></g><!--entity IRunnerCmd--><g class="entity" data-entity="IRunnerCmd" data-source-line="55" data-uid="ent0030" id="entity_IRunnerCmd"><ellipse cx="986" cy="843.9869" fill="#F1F1F1" rx="8" ry="8" style="stroke:#181818;stroke-width:0.5;"/><text fill="#000000" font-family="sans-serif" font-size="14" lengthAdjust="spacing" textLength="126.7998" x="922.6001" y="873.982">IRunnerCommand</text></g><!--entity IScannerInfo--><g class="entity" data-entity="IScannerInfo" data-source-line="56" data-uid="ent0031" id="entity_IScannerInfo"><ellipse cx="783" cy="1144.2769" fill="#F1F1F1" rx="8" ry="8" style="stroke:#181818;stroke-width:0.5;"/><text fill="#000000" font-family="sans-serif" font-size="14" lengthAdjust="spacing" textLength="87.9033" x="739.0483" y="1174.272">IScannerInfo</text></g><!--entity IRunnerInfo--><g class="entity" data-entity="IRunnerInfo" data-source-line="57" data-uid="ent0032" id="entity_IRunnerInfo"><ellipse cx="917" cy="1144.2769" fill="#F1F1F1" rx="8" ry="8" style="stroke:#181818;stroke-width:0.5;"/><text fill="#000000" font-family="sans-serif" font-size="14" lengthAdjust="spacing" textLength="81.3408" x="876.3296" y="1174.272">IRunnerInfo</text></g><!--entity MOD_ABI--><g class="entity" data-entity="MOD_ABI" data-source-line="62" data-uid="ent0034" id="entity_MOD_ABI"><rect fill="#F1F1F1" height="62.5938" rx="2.5" ry="2.5" style="stroke:#181818;stroke-width:0.5;" width="118.668" x="1454.67" y="1294.2769"/><rect fill="#F1F1F1" height="10" style="stroke:#181818;stroke-width:0.5;" width="15" x="1553.338" y="1299.2769"/><rect fill="#F1F1F1" height="2" style="stroke:#181818;stroke-width:0.5;" width="4" x="1551.338" y="1301.2769"/><rect fill="#F1F1F1" height="2" style="stroke:#181818;stroke-width:0.5;" width="4" x="1551.338" y="1305.2769"/><text fill="#000000" font-family="sans-serif" font-size="14" font-style="italic" lengthAdjust="spacing" textLength="69.5967" x="1474.2056" y="1327.272">&#171;module&#187;</text><text fill="#000000" font-family="sans-serif" font-size="14" lengthAdjust="spacing" textLength="78.668" x="1469.67" y="1343.5689">ABI Module</text></g><!--entity MOD_GPR--><g class="entity" data-entity="MOD_GPR" data-source-line="63" data-uid="ent0035" id="entity_MOD_GPR"><rect fill="#F1F1F1" height="62.5938" rx="2.5" ry="2.5" style="stroke:#181818;stroke-width:0.5;" width="132.1895" x="1607.91" y="1294.2769"/><rect fill="#F1F1F1" height="10" style="stroke:#181818;stroke-width:0.5;" width="15" x="1720.0995" y="1299.2769"/><rect fill="#F1F1F1" height="2" style="stroke:#181818;stroke-width:0.5;" width="4" x="1718.0995" y="1301.2769"/><rect fill="#F1F1F1" height="2" style="stroke:#181818;stroke-width:0.5;" width="4" x="1718.0995" y="1305.2769"/><text fill="#000000" font-family="sans-serif" font-size="14" font-style="italic" lengthAdjust="spacing" textLength="69.5967" x="1634.2064" y="1327.272">&#171;module&#187;</text><text fill="#000000" font-family="sans-serif" font-size="14" lengthAdjust="spacing" textLength="92.1895" x="1622.91" y="1343.5689">gRPC Module</text></g><!--entity MOD_CLI--><g class="entity" data-entity="MOD_CLI" data-source-line="64" data-uid="ent0036" id="entity_MOD_CLI"><rect fill="#F1F1F1" height="62.5938" rx="2.5" ry="2.5" style="stroke:#181818;stroke-width:0.5;" width="117.0615" x="1302.47" y="1294.2769"/><rect fill="#F1F1F1" height="10" style="stroke:#181818;stroke-width:0.5;" width="15" x="1399.5315" y="1299.2769"/><rect fill="#F1F1F1" height="2" style="stroke:#181818;stroke-width:0.5;" width="4" x="1397.5315" y="1301.2769"/><rect fill="#F1F1F1" height="2" style="stroke:#181818;stroke-width:0.5;" width="4" x="1397.5315" y="1305.2769"/><text fill="#000000" font-family="sans-serif" font-size="14" font-style="italic" lengthAdjust="spacing" textLength="69.5967" x="1321.2024" y="1327.272">&#171;module&#187;</text><text fill="#000000" font-family="sans-serif" font-size="14" lengthAdjust="spacing" textLength="77.0615" x="1317.47" y="1343.5689">CLI Module</text></g><!--entity ACT--><g class="entity" data-entity="ACT" data-source-line="15" data-uid="ent0002" id="entity_ACT"><ellipse cx="605.0025" cy="51.2969" fill="#F1F1F1" rx="8" ry="8" style="stroke:#181818;stroke-width:0.5;"/><path d="M605.0025,59.2969 L605.0025,86.2969 M592.0025,67.2969 L618.0025,67.2969 M605.0025,86.2969 L592.0025,101.2969 M605.0025,86.2969 L618.0025,101.2969" fill="none" style="stroke:#181818;stroke-width:0.5;"/><text fill="#000000" font-family="sans-serif" font-size="14" lengthAdjust="spacing" textLength="62.665" x="573.67" y="115.792">Operator</text></g><!--entity YAML--><g class="entity" data-entity="YAML" data-source-line="16" data-uid="ent0003" id="entity_YAML"><rect fill="#F1F1F1" height="55.5938" rx="2.5" ry="2.5" style="stroke:#181818;stroke-width:0.5;" width="137.8711" x="57.06" y="1595.8769"/><polygon fill="#F1F1F1" points="177.9311,1600.8769,177.9311,1614.8769,189.9311,1614.8769,189.9311,1606.8769,183.9311,1600.8769,177.9311,1600.8769" style="stroke:#181818;stroke-width:0.5;"/><line style="stroke:#181818;stroke-width:0.5;" x1="183.9311" x2="183.9311" y1="1600.8769" y2="1606.8769"/><line style="stroke:#181818;stroke-width:0.5;" x1="189.9311" x2="183.9311" y1="1606.8769" y2="1606.8769"/><text fill="#000000" font-family="sans-serif" font-size="14" font-style="italic" lengthAdjust="spacing" textLength="51.5225" x="95.2343" y="1621.872">&#171;yaml&#187;</text><text fill="#000000" font-family="sans-serif" font-size="14" lengthAdjust="spacing" textLength="107.8711" x="67.06" y="1638.1689">campaign.yaml</text></g><!--link ICampaignYAML to YAML--><g class="link" data-entity-1="ICampaignYAML" data-entity-2="YAML" data-source-line="68" data-uid="lnk37" id="link_ICampaignYAML_YAML"><path d="M126,1454.4269 C126,1478.5469 126,1554.5269 126,1595.6369" fill="none" id="ICampaignYAML-YAML" style="stroke:#181818;stroke-width:1;"/></g><!--link ICampaignSpec to PARSE--><g class="link" data-entity-1="ICampaignSpec" data-entity-2="PARSE" data-source-line="69" data-uid="lnk38" id="link_ICampaignSpec_PARSE"><path d="M143.23,1152.9869 C140.66,1178.5869 132.33,1261.5069 128.27,1301.9569" fill="none" id="ICampaignSpec-PARSE" style="stroke:#181818;stroke-width:1;"/></g><!--link ITargets to SCN--><g class="link" data-entity-1="ITargets" data-entity-2="SCN" data-source-line="70" data-uid="lnk39" id="link_ITargets_SCN"><path d="M607.32,852.7769 C608.33,877.4969 611.49,954.7569 613.07,993.4969" fill="none" id="ITargets-SCN" style="stroke:#181818;stroke-width:1;"/></g><!--link IModuleExecutor to EXEC--><g class="link" data-entity-1="IModuleExecutor" data-entity-2="EXEC" data-source-line="71" data-uid="lnk40" id="link_IModuleExecutor_EXEC"><path d="M435.73,852.7769 C434.86,877.4969 432.15,954.7569 430.79,993.4969" fill="none" id="IModuleExecutor-EXEC" style="stroke:#181818;stroke-width:1;"/></g><!--link IModule to MOD_ABI--><g class="link" data-entity-1="IModule" data-entity-2="MOD_ABI" data-source-line="72" data-uid="lnk41" id="link_IModule_MOD_ABI"><path d="M482.9,1147.1869 C526.56,1156.5769 716,1197.2769 716,1197.2769 C716,1197.2769 1437,1251.2769 1437,1251.2769 C1437,1251.2769 1460.69,1273.8269 1481.79,1293.9169" fill="none" id="IModule-MOD_ABI" style="stroke:#181818;stroke-width:1;"/></g><!--link IModule to MOD_GPR--><g class="link" data-entity-1="IModule" data-entity-2="MOD_GPR" data-source-line="73" data-uid="lnk42" id="link_IModule_MOD_GPR"><path d="M482.9,1147.1869 C526.56,1156.5769 716,1197.2769 716,1197.2769 C716,1197.2769 1591,1251.2769 1591,1251.2769 C1591,1251.2769 1616.54,1273.8269 1639.28,1293.9169" fill="none" id="IModule-MOD_GPR" style="stroke:#181818;stroke-width:1;"/></g><!--link IModule to MOD_CLI--><g class="link" data-entity-1="IModule" data-entity-2="MOD_CLI" data-source-line="74" data-uid="lnk43" id="link_IModule_MOD_CLI"><path d="M482.9,1147.1869 C526.56,1156.5769 716,1197.2769 716,1197.2769 C716,1197.2769 1142.82,1281.5169 1302.05,1312.9469" fill="none" id="IModule-MOD_CLI" style="stroke:#181818;stroke-width:1;"/></g><!--link IResults to RUN--><g class="link" data-entity-1="IResults" data-entity-2="RUN" data-source-line="75" data-uid="lnk44" id="link_IResults_RUN"><path d="M303.42,567.4869 C323.79,592.2069 387.44,669.4569 419.36,708.2069" fill="none" id="IResults-RUN" style="stroke:#181818;stroke-width:1;"/></g><!--link IModuleAssertions to RUN--><g class="link" data-entity-1="IModuleAssertions" data-entity-2="RUN" data-source-line="76" data-uid="lnk45" id="link_IModuleAssertions_RUN"><path d="M438,567.4869 C438,592.2069 438,669.4569 438,708.2069" fill="none" id="IModuleAssertions-RUN" style="stroke:#181818;stroke-width:1;"/></g><!--link IReport to REP_JSON--><g class="link" data-entity-1="IReport" data-entity-2="REP_JSON" data-source-line="77" data-uid="lnk46" id="link_IReport_REP_JSON"><path d="M391.41,251.0269 C365.16,275.2869 284.97,349.4069 239.11,391.7869" fill="none" id="IReport-REP_JSON" style="stroke:#181818;stroke-width:1;"/></g><!--link IReport to REP_MD--><g class="link" data-entity-1="IReport" data-entity-2="REP_MD" data-source-line="78" data-uid="lnk47" id="link_IReport_REP_MD"><path d="M400,250.7969 C400,274.7969 400,349.1269 400,391.6669" fill="none" id="IReport-REP_MD" style="stroke:#181818;stroke-width:1;"/></g><!--link IAttackReport to ATK--><g class="link" data-entity-1="IAttackReport" data-entity-2="ATK" data-source-line="79" data-uid="lnk48" id="link_IAttackReport_ATK"><path d="M605,250.7969 C605,276.3969 605,359.3169 605,399.7669" fill="none" id="IAttackReport-ATK" style="stroke:#181818;stroke-width:1;"/></g><!--link IWebCommands to WEB--><g class="link" data-entity-1="IWebCommands" data-entity-2="WEB" data-source-line="80" data-uid="lnk49" id="link_IWebCommands_WEB"><path d="M1148.17,851.2769 C1115.95,874.2569 1003.67,954.3169 948.33,993.7869" fill="none" id="IWebCommands-WEB" style="stroke:#181818;stroke-width:1;"/></g><!--link IScannerCmd to WEB--><g class="link" data-entity-1="IScannerCmd" data-entity-2="WEB" data-source-line="81" data-uid="lnk50" id="link_IScannerCmd_WEB"><path d="M811.06,852.7769 C827.09,877.4969 877.19,954.7569 902.32,993.4969" fill="none" id="IScannerCmd-WEB" style="stroke:#181818;stroke-width:1;"/></g><!--link IRunnerCmd to WEB--><g class="link" data-entity-1="IRunnerCmd" data-entity-2="WEB" data-source-line="82" data-uid="lnk51" id="link_IRunnerCmd_WEB"><path d="M982.86,852.7769 C972.89,877.4969 941.74,954.7569 926.12,993.4969" fill="none" id="IRunnerCmd-WEB" style="stroke:#181818;stroke-width:1;"/></g><!--link IScannerInfo to SCN--><g class="link" data-entity-1="IScannerInfo" data-entity-2="SCN" data-source-line="83" data-uid="lnk52" id="link_IScannerInfo_SCN"><path d="M774.01,1136.6269 C750,1118.8469 683.52,1069.6169 644.21,1040.5069" fill="none" id="IScannerInfo-SCN" style="stroke:#181818;stroke-width:1;"/></g><!--link IRunnerInfo to RUN--><g class="link" data-entity-1="IRunnerInfo" data-entity-2="RUN" data-source-line="84" data-uid="lnk53" id="link_IRunnerInfo_RUN"><path d="M910.43,1135.4169 C893.74,1115.4369 851,1064.2769 851,1064.2769 C851,1064.2769 715,872.9869 715,872.9869 C715,872.9869 679,771.9869 679,771.9869 C679,771.9869 553.48,751.5969 483.61,740.2469" fill="none" id="IRunnerInfo-RUN" style="stroke:#181818;stroke-width:1;"/></g><!--link PARSE to ICampaignYAML--><g class="link" data-entity-1="PARSE" data-entity-2="ICampaignYAML" data-source-line="86" data-uid="lnk54" id="link_PARSE_ICampaignYAML"><path d="M126,1349.1069 C126,1375.9169 126,1409.2869 126,1426.9769" fill="none" id="PARSE-to-ICampaignYAML" style="stroke:#181818;stroke-width:1;"/><path d="M134.4572,1433.8987 A9,9 0 0 0 117.5428 1433.8987" fill="none" style="stroke:#181818;stroke-width:1.5;"/></g><!--link SCN to ICampaignSpec--><g class="link" data-entity-1="SCN" data-entity-2="ICampaignSpec" data-source-line="87" data-uid="lnk55" id="link_SCN_ICampaignSpec"><path d="M570.54,1040.6669 C547.95,1052.3769 525,1064.2769 525,1064.2769 C525,1064.2769 246,1072.2769 246,1072.2769 C246,1072.2769 185.5667,1114.3428 160.9067,1131.5128" fill="none" id="SCN-to-ICampaignSpec" style="stroke:#181818;stroke-width:1;"/><path d="M160.0587,1142.4086 A9,9 0 0 0 150.3937 1128.5274" fill="none" style="stroke:#181818;stroke-width:1.5;"/></g><!--link RUN to ICampaignSpec--><g class="link" data-entity-1="RUN" data-entity-2="ICampaignSpec" data-source-line="88" data-uid="lnk56" id="link_RUN_ICampaignSpec"><path d="M392.23,753.6669 C371.69,763.0169 352,771.9869 352,771.9869 C352,771.9869 183.0974,1073.4826 153.2274,1126.8026" fill="none" id="RUN-to-ICampaignSpec" style="stroke:#181818;stroke-width:1;"/><path d="M157.2228,1136.9747 A9,9 0 0 0 142.4661 1128.708" fill="none" style="stroke:#181818;stroke-width:1.5;"/></g><!--link RUN to ITargets--><g class="link" data-entity-1="RUN" data-entity-2="ITargets" data-source-line="89" data-uid="lnk57" id="link_RUN_ITargets"><path d="M483.79,753.4369 C504.75,762.8669 525,771.9869 525,771.9869 C525,771.9869 569.5113,810.5196 590.6613,828.8396" fill="none" id="RUN-to-ITargets" style="stroke:#181818;stroke-width:1;"/><path d="M601.4305,826.979 A9,9 0 0 0 590.3561 839.764" fill="none" style="stroke:#181818;stroke-width:1.5;"/></g><!--link RUN to IModuleExecutor--><g class="link" data-entity-1="RUN" data-entity-2="IModuleExecutor" data-source-line="90" data-uid="lnk58" id="link_RUN_IModuleExecutor"><path d="M437.59,755.3869 C437.14,780.1869 436.6226,808.6885 436.3226,825.1185" fill="none" id="RUN-to-IModuleExecutor" style="stroke:#181818;stroke-width:1;"/><path d="M444.652,832.1936 A9,9 0 0 0 427.7404 831.8848" fill="none" style="stroke:#181818;stroke-width:1.5;"/></g><!--link EXEC to IModule--><g class="link" data-entity-1="EXEC" data-entity-2="IModule" data-source-line="91" data-uid="lnk59" id="link_EXEC_IModule"><path d="M437.87,1040.5069 C447.85,1068.9069 461.2631,1107.043 467.8731,1125.843" fill="none" id="EXEC-to-IModule" style="stroke:#181818;stroke-width:1;"/><path d="M478.1474,1129.5678 A9,9 0 0 0 462.1905 1135.1781" fill="none" style="stroke:#181818;stroke-width:1.5;"/></g><!--link REP_JSON to IResults--><g class="link" data-entity-1="REP_JSON" data-entity-2="IResults" data-source-line="92" data-uid="lnk60" id="link_REP_JSON_IResults"><path d="M226.88,454.9669 C247.97,485.8669 273.5323,523.3076 285.9623,541.5176" fill="none" id="REP_JSON-to-IResults" style="stroke:#181818;stroke-width:1;"/><path d="M296.8497,542.4666 A9,9 0 0 0 282.8795 552.0025" fill="none" style="stroke:#181818;stroke-width:1.5;"/></g><!--link REP_MD to IResults--><g class="link" data-entity-1="REP_MD" data-entity-2="IResults" data-source-line="93" data-uid="lnk61" id="link_REP_MD_IResults"><path d="M374.8,455.1769 C361.95,470.8669 349,486.6869 349,486.6869 C349,486.6869 322.2081,523.2588 308.6681,541.7488" fill="none" id="REP_MD-to-IResults" style="stroke:#181818;stroke-width:1;"/><path d="M311.402,552.33 A9,9 0 0 0 297.7553 542.3367" fill="none" style="stroke:#181818;stroke-width:1.5;"/></g><!--link ATK to IModuleAssertions--><g class="link" data-entity-1="ATK" data-entity-2="IModuleAssertions" data-source-line="94" data-uid="lnk62" id="link_ATK_IModuleAssertions"><path d="M576.67,446.9969 C537.96,477.8969 478.4267,525.4199 454.5267,544.4899" fill="none" id="ATK-to-IModuleAssertions" style="stroke:#181818;stroke-width:1;"/><path d="M454.3909,555.4178 A9,9 0 0 0 443.8414 542.1963" fill="none" style="stroke:#181818;stroke-width:1.5;"/></g><!--link ACT to IReport--><g class="link" data-entity-1="ACT" data-entity-2="IReport" data-source-line="95" data-uid="lnk63" id="link_ACT_IReport"><path d="M573.21,100.8269 C552.38,113.1969 529,127.0869 529,127.0869 C529,127.0869 445.5022,200.8737 416.3622,226.6337" fill="none" id="ACT-to-IReport" style="stroke:#181818;stroke-width:1;"/><path d="M416.7776,237.5545 A9,9 0 0 0 405.5749 224.8818" fill="none" style="stroke:#181818;stroke-width:1.5;"/></g><!--link ACT to IAttackReport--><g class="link" data-entity-1="ACT" data-entity-2="IAttackReport" data-source-line="96" data-uid="lnk64" id="link_ACT_IAttackReport"><path d="M605,119.2569 C605,157.1069 605,202.9369 605,223.2969" fill="none" id="ACT-to-IAttackReport" style="stroke:#181818;stroke-width:1;"/><path d="M613.4572,230.2187 A9,9 0 0 0 596.5428 230.2187" fill="none" style="stroke:#181818;stroke-width:1.5;"/></g><!--link ACT to IWebCommands--><g class="link" data-entity-1="ACT" data-entity-2="IWebCommands" data-source-line="97" data-uid="lnk65" id="link_ACT_IWebCommands"><path d="M636.79,100.8269 C657.62,113.1969 681,127.0869 681,127.0869 C681,127.0869 937,331.0869 937,331.0869 C937,331.0869 937,331.0869 937,648.6869 C937,648.6869 1099.4445,792.1573 1140.6045,828.5073" fill="none" id="ACT-to-IWebCommands" style="stroke:#181818;stroke-width:1;"/><path d="M1151.3911,826.7502 A9,9 0 0 0 1140.1945 839.4283" fill="none" style="stroke:#181818;stroke-width:1.5;"/></g><!--link SCN to IScannerCmd--><g class="link" data-entity-1="SCN" data-entity-2="IScannerCmd" data-source-line="98" data-uid="lnk66" id="link_SCN_IScannerCmd"><path d="M639.39,993.4969 C682.85,954.7569 762.0554,884.1512 789.7854,859.4312" fill="none" id="SCN-to-IScannerCmd" style="stroke:#181818;stroke-width:1;"/><path d="M789.3245,848.5122 A9,9 0 0 0 800.58 861.1382" fill="none" style="stroke:#181818;stroke-width:1.5;"/></g><!--link RUN to IRunnerCmd--><g class="link" data-entity-1="RUN" data-entity-2="IRunnerCmd" data-source-line="99" data-uid="lnk67" id="link_RUN_IRunnerCmd"><path d="M483.79,736.7269 C600.14,746.6369 898,771.9869 898,771.9869 C898,771.9869 947.1973,811.6776 969.4573,829.6376" fill="none" id="RUN-to-IRunnerCmd" style="stroke:#181818;stroke-width:1;"/><path d="M980.1549,827.402 A9,9 0 0 0 969.5338 840.566" fill="none" style="stroke:#181818;stroke-width:1.5;"/></g><!--link WEB to IScannerInfo--><g class="link" data-entity-1="WEB" data-entity-2="IScannerInfo" data-source-line="100" data-uid="lnk68" id="link_WEB_IScannerInfo"><path d="M890.19,1040.4669 C872.28,1055.3869 852,1072.2769 852,1072.2769 C852,1072.2769 815.5795,1109.7556 797.6195,1128.2356" fill="none" id="WEB-to-IScannerInfo" style="stroke:#181818;stroke-width:1;"/><path d="M798.8602,1139.0937 A9,9 0 0 0 786.7304 1127.3052" fill="none" style="stroke:#181818;stroke-width:1.5;"/></g><!--link WEB to IRunnerInfo--><g class="link" data-entity-1="WEB" data-entity-2="IRunnerInfo" data-source-line="101" data-uid="lnk69" id="link_WEB_IRunnerInfo"><path d="M917,1040.5069 C917,1068.9069 917,1106.4769 917,1125.2769" fill="none" id="WEB-to-IRunnerInfo" style="stroke:#181818;stroke-width:1;"/><path d="M925.4572,1132.1987 A9,9 0 0 0 908.5428 1132.1987" fill="none" style="stroke:#181818;stroke-width:1.5;"/></g><!--SRC=[XLNTQjim5BxNKvpcfkr5nzQVNOM2wvYHDMb3aj6EK8hcA8w9BHjPeGsZi8VO4-v9fbzRaaUNA-lxllEhevFZ8xub9G5U7H3YEIy8t3Ay8nJ-_FeDSLNM5IMKmoZ76SCbeEEZck6in53WGxNdG8eTGiTGa0qNJe3bsPR3EcSavNb51TFiSbfZQPjQRmj-476a1DEi8AYJ53ab_50JgAlY80-UWsQBrzLBJZFOuABnkHU6wuTypRTmVldHOsYr9Wsf8O0PfZi9NrnvS8tJ7Sv8c2B2AQyO3Evhmh3u6W1k88gN23EURmG9WnINDSup-k60oqBntwFf18P3URw-HiYuXe7ki9BSma-405fgJ3D6caPnaq-21F5RnSOrp31h27kIx2oQBn95dvmAEokHCPMrX_HrYvgalauYGlVcvRD8CQMYupgXSvkGWaqYY_YkSx_4B2DSvsyFFQV9AqdtSZoqrmlhTRvldSw_QQUhQRNUYvlG9fKcaySaxa9gXHNeo3uMQbrDnyr9ioziwkOGMaQDQB_Cl75zT6Ylr3cfAq7P1bxQKhykxkz0axRYPFQiqE6G6LmCZUu1PZin-BHlC1trvQOOYTbQv7SljOXpyGcJAilr94okR7Q6MZ92LAXeUTkvrgGRm4LwOUAASbOLC2im9N3oG7v0D1kVweYVRKG3gsWFoKqNJH1Y2vMOhatB7Q1JcNaqX1PQh5mxRTdtP0PoLSPoJ3ULvqe2eQzEr9rL3zwS1v-yYkkXk00zBxgIv76fgbz5DsD3F84aflUZPuc9goqLh2vsbSrdSQipiY-pUIYB9trl4dDb8ZVaxGTP59oTdQcLXRoLq59wuTX73UrFSd8718_ECEgj6Wfy8rFdEwmexnrML8NiG_LPkJrwRxDZzAG67ktxUuUUZf0twoqftuSxc9sPd6Ld4Y5Wsk43-BUD7AUWpTsS1HKZTKFoV19iVs6dXIV1kXTc_oVi6dUnOC7AM_OfrEup1TfzQfOM-AZeN-3PMQdYNnOw0xLZNCXRFYxXBWgt0SvUS2lgze3eVoXMhzh5kqlu2m00]--></g></svg>