<svg xmlns="http://www.w3.org/2000/svg" xmlns:xlink="http://www.w3.org/1999/xlink" contentStyleType="text/css" data-diagram-type="DESCRIPTION" height="1806px" preserveAspectRatio="none" style="width:1698px;height:1806px;background:#FFFFFF;" version="1.1" viewBox="0 0 1698 1806" width="1698px" zoomAndPan="magnify"><title>Kraken &#8212; Component Diagram</title><defs/><g><g class="title" data-source-line="3"><text fill="#000000" font-family="sans-serif" font-size="14" font-weight="bold" lengthAdjust="spacing" textLength="241.6641" x="721.2715" y="22.9951">Kraken &#8212; Component Diagram</text></g><!--cluster K--><g class="cluster" data-entity="K" data-source-line="18" data-uid="ent0004" id="cluster_K"><path d="M502.5,166.0869 L559.4727,166.0869 A3.75,3.75 0 0 1 561.9727,168.5869 L568.9727,188.3837 L1586.5,188.3837 A2.5,2.5 0 0 1 1589,190.8837 L1589,1633.3769 A2.5,2.5 0 0 1 1586.5,1635.8769 L502.5,1635.8769 A2.5,2.5 0 0 1 500,1633.3769 L500,168.5869 A2.5,2.5 0 0 1 502.5,166.0869" fill="none" style="stroke:#000000;stroke-width:1.5;"/><line style="stroke:#000000;stroke-width:1.5;" x1="500" x2="568.9727" y1="188.3837" y2="188.3837"/><text fill="#000000" font-family="sans-serif" font-size="14" font-weight="bold" lengthAdjust="spacing" textLength="55.9727" x="504" y="181.082">Kraken</text></g><!--cluster L1--><g class="cluster" data-entity="L1" data-source-line="20" data-uid="ent0005" id="cluster_L1"><path d="M829.5,1173.2769 L888.7627,1173.2769 A3.75,3.75 0 0 1 891.2627,1175.7769 L898.2627,1195.5738 L1016.5,1195.5738 A2.5,2.5 0 0 1 1019,1198.0738 L1019,1609.3769 A2.5,2.5 0 0 1 1016.5,1611.8769 L829.5,1611.8769 A2.5,2.5 0 0 1 827,1609.3769 L827,1175.7769 A2.5,2.5 0 0 1 829.5,1173.2769" fill="none" style="stroke:#000000;stroke-width:1.5;"/><line style="stroke:#000000;stroke-width:1.5;" x1="827" x2="898.2627" y1="1195.5738" y2="1195.5738"/><text fill="#000000" font-family="sans-serif" font-size="14" font-weight="bold" lengthAdjust="spacing" textLength="58.2627" x="831" y="1188.272">Ingress</text></g><!--cluster L2--><g class="cluster" data-entity="L2" data-source-line="26" data-uid="ent0009" id="cluster_L2"><path d="M866.5,845.9869 L940.0498,845.9869 A3.75,3.75 0 0 1 942.5498,848.4869 L949.5498,868.2838 L991.5,868.2838 A2.5,2.5 0 0 1 994,870.7838 L994,1137.7769 A2.5,2.5 0 0 1 991.5,1140.2769 L866.5,1140.2769 A2.5,2.5 0 0 1 864,1137.7769 L864,848.4869 A2.5,2.5 0 0 1 866.5,845.9869" fill="none" style="stroke:#000000;stroke-width:1.5;"/><line style="stroke:#000000;stroke-width:1.5;" x1="864" x2="949.5498" y1="868.2838" y2="868.2838"/><text fill="#000000" font-family="sans-serif" font-size="14" font-weight="bold" lengthAdjust="spacing" textLength="72.5498" x="868" y="860.982">Scanning</text></g><!--cluster L3--><g class="cluster" data-entity="L3" data-source-line="31" data-uid="ent0012" id="cluster_L3"><path d="M526.5,536.6869 L604.9307,536.6869 A3.75,3.75 0 0 1 607.4307,539.1869 L614.4307,558.9838 L800.5,558.9838 A2.5,2.5 0 0 1 803,561.4838 L803,1279.7769 A2.5,2.5 0 0 1 800.5,1282.2769 L526.5,1282.2769 A2.5,2.5 0 0 1 524,1279.7769 L524,539.1869 A2.5,2.5 0 0 1 526.5,536.6869" fill="none" style="stroke:#000000;stroke-width:1.5;"/><line style="stroke:#000000;stroke-width:1.5;" x1="524" x2="614.4307" y1="558.9838" y2="558.9838"/><text fill="#000000" font-family="sans-serif" font-size="14" font-weight="bold" lengthAdjust="spacing" textLength="77.4307" x="528" y="551.682">Execution</text></g><!--cluster L4--><g class="cluster" data-entity="L4" data-source-line="40" data-uid="ent0019" id="cluster_L4"><path d="M526.5,209.0869 L605.7988,209.0869 A3.75,3.75 0 0 1 608.2988,211.5869 L615.2988,231.3837 L906.5,231.3837 A2.5,2.5 0 0 1 909,233.8837 L909,501.1869 A2.5,2.5 0 0 1 906.5,503.6869 L526.5,503.6869 A2.5,2.5 0 0 1 524,501.1869 L524,211.5869 A2.5,2.5 0 0 1 526.5,209.0869" fill="none" style="stroke:#000000;stroke-width:1.5;"/><line style="stroke:#000000;stroke-width:1.5;" x1="524" x2="615.2988" y1="231.3837" y2="231.3837"/><text fill="#000000" font-family="sans-serif" font-size="14" font-weight="bold" lengthAdjust="spacing" textLength="78.2988" x="528" y="224.082">Reporting</text></g><!--cluster L5--><g class="cluster" data-entity="L5" data-source-line="46" data-uid="ent0023" id="cluster_L5"><path d="M1115.5,209.0869 L1214.3086,209.0869 A3.75,3.75 0 0 1 1216.8086,211.5869 L1223.8086,231.3837 L1262.5,231.3837 A2.5,2.5 0 0 1 1265,233.8837 L1265,493.0369 A2.5,2.5 0 0 1 1262.5,495.5369 L1115.5,495.5369 A2.5,2.5 0 0 1 1113,493.0369 L1113,211.5869 A2.5,2.5 0 0 1 1115.5,209.0869" fill="none" style="stroke:#000000;stroke-width:1.5;"/><line style="stroke:#000000;stroke-width:1.5;" x1="1113" x2="1223.8086" y1="231.3837" y2="231.3837"/><text fill="#000000" font-family="sans-serif" font-size="14" font-weight="bold" lengthAdjust="spacing" textLength="97.8086" x="1117" y="224.082">Attack Logic</text></g><!--cluster L6--><g class="cluster" data-entity="L6" data-source-line="51" data-uid="ent0026" id="cluster_L6"><path d="M1045.5,845.9869 L1237.0244,845.9869 A3.75,3.75 0 0 1 1239.5244,848.4869 L1246.5244,868.2838 L1562.5,868.2838 A2.5,2.5 0 0 1 1565,870.7838 L1565,1279.7769 A2.5,2.5 0 0 1 1562.5,1282.2769 L1045.5,1282.2769 A2.5,2.5 0 0 1 1043,1279.7769 L1043,848.4869 A2.5,2.5 0 0 1 1045.5,845.9869" fill="none" style="stroke:#000000;stroke-width:1.5;"/><line style="stroke:#000000;stroke-width:1.5;" x1="1043" x2="1246.5244" y1="868.2838" y2="868.2838"/><text fill="#000000" font-family="sans-serif" font-size="14" font-weight="bold" lengthAdjust="spacing" textLength="190.5244" x="1047" y="860.982">Control Plane (Web API)</text></g><!--cluster EXT--><g class="cluster" data-entity="EXT" data-source-line="61" data-uid="ent0033" id="cluster_EXT"><path d="M8.5,1377.2769 L146.4375,1377.2769 A3.75,3.75 0 0 1 148.9375,1379.7769 L155.9375,1399.5738 L473.5,1399.5738 A2.5,2.5 0 0 1 476,1402.0738 L476,1488.3769 A2.5,2.5 0 0 1 473.5,1490.8769 L8.5,1490.8769 A2.5,2.5 0 0 1 6,1488.3769 L6,1379.7769 A2.5,2.5 0 0 1 8.5,1377.2769" fill="none" style="stroke:#000000;stroke-width:1.5;"/><line style="stroke:#000000;stroke-width:1.5;" x1="6" x2="155.9375" y1="1399.5738" y2="1399.5738"/><text fill="#000000" font-family="sans-serif" font-size="14" font-weight="bold" lengthAdjust="spacing" textLength="136.9375" x="10" y="1392.272">External Modules</text></g><!--entity PARSE--><g class="entity" data-entity="PARSE" data-source-line="21" data-uid="ent0006" id="entity_PARSE"><rect fill="#F1F1F1" height="46.2969" rx="2.5" ry="2.5" style="stroke:#181818;stroke-width:0.5;" width="159.998" x="843" y="1420.4269"/><rect fill="#F1F1F1" height="10" style="stroke:#181818;stroke-width:0.5;" width="15" x="982.998" y="1425.4269"/><rect fill="#F1F1F1" height="2" style="stroke:#181818;stroke-width:0.5;" width="4" x="980.998" y="1427.4269"/><rect fill="#F1F1F1" height="2" style="stroke:#181818;stroke-width:0.5;" width="4" x="980.998" y="1431.4269"/><text fill="#000000" font-family="sans-serif" font-size="14" lengthAdjust="spacing" textLength="119.998" x="858" y="1453.422">Campaign Parser</text></g><!--entity ICampaignYAML--><g class="entity" data-entity="ICampaignYAML" data-source-line="22" data-uid="ent0007" id="entity_ICampaignYAML"><ellipse cx="931" cy="1566.8769" fill="#F1F1F1" rx="8" ry="8" style="stroke:#181818;stroke-width:0.5;"/><text fill="#000000" font-family="sans-serif" font-size="14" lengthAdjust="spacing" textLength="113.2441" x="874.3779" y="1596.872">ICampaignYAML</text></g><!--entity ICampaignSpec--><g class="entity" data-entity="ICampaignSpec" data-source-line="23" data-uid="ent0008" id="entity_ICampaignSpec"><ellipse cx="923" cy="1237.2769" fill="#F1F1F1" rx="8" ry="8" style="stroke:#181818;stroke-width:0.5;"/><text fill="#000000" font-family="sans-serif" font-size="14" lengthAdjust="spacing" textLength="109.3203" x="868.3398" y="1267.272">ICampaignSpec</text></g><!--entity SCN--><g class="entity" data-entity="SCN" data-source-line="27" data-uid="ent0010" id="entity_SCN"><rect fill="#F1F1F1" height="46.2969" rx="2.5" ry="2.5" style="stroke:#181818;stroke-width:0.5;" width="97.2783" x="880.36" y="1077.9869"/><rect fill="#F1F1F1" height="10" style="stroke:#181818;stroke-width:0.5;" width="15" x="957.6383" y="1082.9869"/><rect fill="#F1F1F1" height="2" style="stroke:#181818;stroke-width:0.5;" width="4" x="955.6383" y="1084.9869"/><rect fill="#F1F1F1" height="2" style="stroke:#181818;stroke-width:0.5;" width="4" x="955.6383" y="1088.9869"/><text fill="#000000" font-family="sans-serif" font-size="14" lengthAdjust="spacing" textLength="57.2783" x="895.36" y="1110.982">Scanner</text></g><!--entity ITargets--><g class="entity" data-entity="ITargets" data-source-line="28" data-uid="ent0011" id="entity_ITargets"><ellipse cx="922" cy="909.9869" fill="#F1F1F1" rx="8" ry="8" style="stroke:#181818;stroke-width:0.5;"/><text fill="#000000" font-family="sans-serif" font-size="14" lengthAdjust="spacing" textLength="57.2988" x="893.3506" y="939.982">ITargets</text></g><!--entity RUN--><g class="entity" data-entity="RUN" data-source-line="32" data-uid="ent0013" id="entity_RUN"><rect fill="#F1F1F1" height="46.2969" rx="2.5" ry="2.5" style="stroke:#181818;stroke-width:0.5;" width="90.7158" x="696.64" y="752.6869"/><rect fill="#F1F1F1" height="10" style="stroke:#181818;stroke-width:0.5;" width="15" x="767.3558" y="757.6869"/><rect fill="#F1F1F1" height="2" style="stroke:#181818;stroke-width:0.5;" width="4" x="765.3558" y="759.6869"/><rect fill="#F1F1F1" height="2" style="stroke:#181818;stroke-width:0.5;" width="4" x="765.3558" y="763.6869"/><text fill="#000000" font-family="sans-serif" font-size="14" lengthAdjust="spacing" textLength="50.7158" x="711.64" y="785.682">Runner</text></g><!--entity EXEC--><g class="entity" data-entity="EXEC" data-source-line="33" data-uid="ent0014" id="entity_EXEC"><rect fill="#F1F1F1" height="46.2969" rx="2.5" ry="2.5" style="stroke:#181818;stroke-width:0.5;" width="157.4824" x="573.26" y="1077.9869"/><rect fill="#F1F1F1" height="10" style="stroke:#181818;stroke-width:0.5;" width="15" x="710.7424" y="1082.9869"/><rect fill="#F1F1F1" height="2" style="stroke:#181818;stroke-width:0.5;" width="4" x="708.7424" y="1084.9869"/><rect fill="#F1F1F1" height="2" style="stroke:#181818;stroke-width:0.5;" width="4" x="708.7424" y="1088.9869"/><text fill="#000000" font-family="sans-serif" font-size="14" lengthAdjust="spacing" textLength="117.4824" x="588.26" y="1110.982">Module Executor</text></g><!--entity IModuleExecutor--><g class="entity" data-entity="IModuleExecutor" data-source-line="34" data-uid="ent0015" id="entity_IModuleExecutor"><ellipse cx="663" cy="909.9869" fill="#F1F1F1" rx="8" ry="8" style="stroke:#181818;stroke-width:0.5;"/><text fill="#000000" font-family="sans-serif" font-size="14" lengthAdjust="spacing" textLength="117.1611" x="604.4194" y="939.982">IModuleExecutor</text></g><!--entity IModule--><g class="entity" data-entity="IModule" data-source-line="35" data-uid="ent0016" id="entity_IModule"><ellipse cx="575" cy="1237.2769" fill="#F1F1F1" rx="8" ry="8" style="stroke:#181818;stroke-width:0.5;"/><text fill="#000000" font-family="sans-serif" font-size="14" lengthAdjust="spacing" textLength="55.0361" x="547.4819" y="1267.272">IModule</text></g><!--entity IResults--><g class="entity" data-entity="IResults" data-source-line="36" data-uid="ent0017" id="entity_IResults"><ellipse cx="575" cy="600.6869" fill="#F1F1F1" rx="8" ry="8" style="stroke:#181818;stroke-width:0.5;"/><text fill="#000000" font-family="sans-serif" font-size="14" lengthAdjust="spacing" textLength="55.3096" x="547.3452" y="630.682">IResults</text></g><!--entity IModuleAssertions--><g class="entity" data-entity="IModuleAssertions" data-source-line="37" data-uid="ent0018" id="entity_IModuleAssertions"><ellipse cx="716" cy="600.6869" fill="#F1F1F1" rx="8" ry="8" style="stroke:#181818;stroke-width:0.5;"/><text fill="#000000" font-family="sans-serif" font-size="14" lengthAdjust="spacing" textLength="127.6816" x="652.1592" y="630.682">IModuleAssertions</text></g><!--entity REP_JSON--><g class="entity" data-entity="REP_JSON" data-source-line="41" data-uid="ent0020" id="entity_REP_JSON"><rect fill="#F1F1F1" height="62.5938" rx="2.5" ry="2.5" style="stroke:#181818;stroke-width:0.5;" width="140.3652" x="752.82" y="425.0869"/><rect fill="#F1F1F1" height="10" style="stroke:#181818;stroke-width:0.5;" width="15" x="873.1852" y="430.0869"/><rect fill="#F1F1F1" height="2" style="stroke:#181818;stroke-width:0.5;" width="4" x="871.1852" y="432.0869"/><rect fill="#F1F1F1" height="2" style="stroke:#181818;stroke-width:0.5;" width="4" x="871.1852" y="436.0869"/><text fill="#000000" font-family="sans-serif" font-size="14" font-style="italic" lengthAdjust="spacing" textLength="74.5664" x="780.7194" y="458.082">&#171;reporter&#187;</text><text fill="#000000" font-family="sans-serif" font-size="14" lengthAdjust="spacing" textLength="100.3652" x="767.82" y="474.3789">JSON Reporter</text></g><!--entity REP_MD--><g class="entity" data-entity="REP_MD" data-source-line="42" data-uid="ent0021" id="entity_REP_MD"><rect fill="#F1F1F1" height="62.5938" rx="2.5" ry="2.5" style="stroke:#181818;stroke-width:0.5;" width="178.1543" x="539.92" y="425.0869"/><rect fill="#F1F1F1" height="10" style="stroke:#181818;stroke-width:0.5;" width="15" x="698.0743" y="430.0869"/><rect fill="#F1F1F1" height="2" style="stroke:#181818;stroke-width:0.5;" width="4" x="696.0743" y="432.0869"/><rect fill="#F1F1F1" height="2" style="stroke:#181818;stroke-width:0.5;" width="4" x="696.0743" y="436.0869"/><text fill="#000000" font-family="sans-serif" font-size="14" font-style="italic" lengthAdjust="spacing" textLength="74.5664" x="586.7139" y="458.082">&#171;reporter&#187;</text><text fill="#000000" font-family="sans-serif" font-size="14" lengthAdjust="spacing" textLength="138.1543" x="554.92" y="474.3789">Markdown Reporter</text></g><!--entity IReport--><g class="entity" data-entity="IReport" data-source-line="43" data-uid="ent0022" id="entity_IReport"><ellipse cx="823" cy="273.0869" fill="#F1F1F1" rx="8" ry="8" style="stroke:#181818;stroke-width:0.5;"/><text fill="#000000" font-family="sans-serif" font-size="14" lengthAdjust="spacing" textLength="51.167" x="797.4165" y="303.082">IReport</text></g><!--entity ATK--><g class="entity" data-entity="ATK" data-source-line="47" data-uid="ent0024" id="entity_ATK"><rect fill="#F1F1F1" height="46.2969" rx="2.5" ry="2.5" style="stroke:#181818;stroke-width:0.5;" width="120.9238" x="1128.54" y="433.2369"/><rect fill="#F1F1F1" height="10" style="stroke:#181818;stroke-width:0.5;" width="15" x="1229.4638" y="438.2369"/><rect fill="#F1F1F1" height="2" style="stroke:#181818;stroke-width:0.5;" width="4" x="1227.4638" y="440.2369"/><rect fill="#F1F1F1" height="2" style="stroke:#181818;stroke-width:0.5;" width="4" x="1227.4638" y="444.2369"/><text fill="#000000" font-family="sans-serif" font-size="14" lengthAdjust="spacing" textLength="80.9238" x="1143.54" y="466.232">Attack Tree</text></g><!--entity IAttackReport--><g class="entity" data-entity="IAttackReport" data-source-line="48" data-uid="ent0025" id="entity_IAttackReport"><ellipse cx="1192" cy="273.0869" fill="#F1F1F1" rx="8" ry="8" style="stroke:#181818;stroke-width:0.5;"/><text fill="#000000" font-family="sans-serif" font-size="14" lengthAdjust="spacing" textLength="96.1064" x="1143.9468" y="303.082">IAttackReport</text></g><!--entity WEB--><g class="entity" data-entity="WEB" data-source-line="52" data-uid="ent0027" id="entity_WEB"><rect fill="#F1F1F1" height="46.2969" rx="2.5" ry="2.5" style="stroke:#181818;stroke-width:0.5;" width="97.9414" x="1195.03" y="1077.9869"/><rect fill="#F1F1F1" height="10" style="stroke:#181818;stroke-width:0.5;" width="15" x="1272.9714" y="1082.9869"/><rect fill="#F1F1F1" height="2" style="stroke:#181818;stroke-width:0.5;" width="4" x="1270.9714" y="1084.9869"/><rect fill="#F1F1F1" height="2" style="stroke:#181818;stroke-width:0.5;" width="4" x="1270.9714" y="1088.9869"/><text fill="#000000" font-family="sans-serif" font-size="14" lengthAdjust="spacing" textLength="57.9414" x="1210.03" y="1110.982">Web API</text></g><!--entity IWebCommands--><g class="entity" data-entity="IWebCommands" data-source-line="53" data-uid="ent0028" id="entity_IWebCommands"><ellipse cx="1484" cy="909.9869" fill="#F1F1F1" rx="8" ry="8" style="stroke:#181818;stroke-width:0.5;"/><text fill="#000000" font-family="sans-serif" font-size="14" lengthAdjust="spacing" textLength="114.7207" x="1426.6396" y="939.982">IWebCommands</text></g><!--entity IScannerCmd--><g class="entity" data-entity="IScannerCmd" data-source-line="54" data-uid="ent0029" id="entity_IScannerCmd"><ellipse cx="1133" cy="909.9869" fill="#F1F1F1" rx="8" ry="8" style="stroke:#181818;stroke-width:0.5;"/><text fill="#000000" font-family="sans-serif" font-size="14" lengthAdjust="spacing" textLength="133.3623" x="1066.3188" y="939.982">IScannerCommand</text></g><!--entity IRunnerCmd--><g class="entity" data-entity="IRunnerCmd" data-source-line="55" data-uid="ent0030" id="entity_IRunnerCmd"><ellipse cx="1313" cy="909.9869" fill="#F1F1F1" rx="8" ry="8" style="stroke:#181818;stroke-width:0.5;"/><text fill="#000000" font-family="sans-serif" font-size="14" lengthAdjust="spacing" textLength="126.7998" x="1249.6001" y="939.982">IRunnerCommand</text></g><!--entity IScannerInfo--><g class="entity" data-entity="IScannerInfo" data-source-line="56" data-uid="ent0031" id="entity_IScannerInfo"><ellipse cx="1110" cy="1237.2769" fill="#F1F1F1" rx="8" ry="8" style="stroke:#181818;stroke-width:0.5;"/><text fill="#000000" font-family="sans-serif" font-size="14" lengthAdjust="spacing" textLength="87.9033" x="1066.0483" y="1267.272">IScannerInfo</text></g><!--entity IRunnerInfo--><g class="entity" data-entity="IRunnerInfo" data-source-line="57" data-uid="ent0032" id="entity_IRunnerInfo"><ellipse cx="1244" cy="1237.2769" fill="#F1F1F1" rx="8" ry="8" style="stroke:#181818;stroke-width:0.5;"/><text fill="#000000" font-family="sans-serif" font-size="14" lengthAdjust="spacing" textLength="81.3408" x="1203.3296" y="1267.272">IRunnerInfo</text></g><!--entity MOD_ABI--><g class="entity" data-entity="MOD_ABI" data-source-line="62" data-uid="ent0034" id="entity_MOD_ABI"><rect fill="#F1F1F1" height="62.5938" rx="2.5" ry="2.5" style="stroke:#181818;stroke-width:0.5;" width="118.668" x="21.67" y="1412.2769"/><rect fill="#F1F1F1" height="10" style="stroke:#181818;stroke-width:0.5;" width="15" x="120.338" y="1417.2769"/><rect fill="#F1F1F1" height="2" style="stroke:#181818;stroke-width:0.5;" width="4" x="118.338" y="1419.2769"/><rect fill="#F1F1F1" height="2" style="stroke:#181818;stroke-width:0.5;" width="4" x="118.338" y="1423.2769"/><text fill="#000000" font-family="sans-serif" font-size="14" font-style="italic" lengthAdjust="spacing" textLength="69.5967" x="41.2056" y="1445.272">&#171;module&#187;</text><text fill="#000000" font-family="sans-serif" font-size="14" lengthAdjust="spacing" textLength="78.668" x="36.67" y="1461.5689">ABI Module</text></g><!--entity MOD_GPR--><g class="entity" data-entity="MOD_GPR" data-source-line="63" data-uid="ent0035" id="entity_MOD_GPR"><rect fill="#F1F1F1" height="62.5938" rx="2.5" ry="2.5" style="stroke:#181818;stroke-width:0.5;" width="132.1895" x="174.91" y="1412.2769"/><rect fill="#F1F1F1" height="10" style="stroke:#181818;stroke-width:0.5;" width="15" x="287.0995" y="1417.2769"/><rect fill="#F1F1F1" height="2" style="stroke:#181818;stroke-width:0.5;" width="4" x="285.0995" y="1419.2769"/><rect fill="#F1F1F1" height="2" style="stroke:#181818;stroke-width:0.5;" width="4" x="285.0995" y="1423.2769"/><text fill="#000000" font-family="sans-serif" font-size="14" font-style="italic" lengthAdjust="spacing" textLength="69.5967" x="201.2064" y="1445.272">&#171;module&#187;</text><text fill="#000000" font-family="sans-serif" font-size="14" lengthAdjust="spacing" textLength="92.1895" x="189.91" y="1461.5689">gRPC Module</text></g><!--entity MOD_CLI--><g class="entity" data-entity="MOD_CLI" data-source-line="64" data-uid="ent0036" id="entity_MOD_CLI"><rect fill="#F1F1F1" height="62.5938" rx="2.5" ry="2.5" style="stroke:#181818;stroke-width:0.5;" width="117.0615" x="342.47" y="1412.2769"/><rect fill="#F1F1F1" height="10" style="stroke:#181818;stroke-width:0.5;" width="15" x="439.5315" y="1417.2769"/><rect fill="#F1F1F1" height="2" style="stroke:#181818;stroke-width:0.5;" width="4" x="437.5315" y="1419.2769"/><rect fill="#F1F1F1" height="2" style="stroke:#181818;stroke-width:0.5;" width="4" x="437.5315" y="1423.2769"/><text fill="#000000" font-family="sans-serif" font-size="14" font-style="italic" lengthAdjust="spacing" textLength="69.5967" x="361.2024" y="1445.272">&#171;module&#187;</text><text fill="#000000" font-family="sans-serif" font-size="14" lengthAdjust="spacing" textLength="77.0615" x="357.47" y="1461.5689">CLI Module</text></g><!--entity ACT--><g class="entity" data-entity="ACT" data-source-line="15" data-uid="ent0002" id="entity_ACT"><ellipse cx="1275.0025" cy="51.2969" fill="#F1F1F1" rx="8" ry="8" style="stroke:#181818;stroke-width:0.5;"/><path d="M1275.0025,59.2969 L1275.0025,86.2969 M1262.0025,67.2969 L1288.0025,67.2969 M1275.0025,86.2969 L1262.0025,101.2969 M1275.0025,86.2969 L1288.0025,101.2969" fill="none" style="stroke:#181818;stroke-width:0.5;"/><text fill="#000000" font-family="sans-serif" font-size="14" lengthAdjust="spacing" textLength="62.665" x="1243.67" y="115.792">Operator</text></g><!--entity YAML--><g class="entity" data-entity="YAML" data-source-line="16" data-uid="ent0003" id="entity_YAML"><rect fill="#F1F1F1" height="55.5938" rx="2.5" ry="2.5" style="stroke:#181818;stroke-width:0.5;" width="137.8711" x="1216.06" y="1744.8769"/><polygon fill="#F1F1F1" points="1336.9311,1749.8769,1336.9311,1763.8769,1348.9311,1763.8769,1348.9311,1755.8769,1342.9311,1749.8769,1336.9311,1749.8769" style="stroke:#181818;stroke-width:0.5;"/><line style="stroke:#181818;stroke-width:0.5;" x1="1342.9311" x2="1342.9311" y1="1749.8769" y2="1755.8769"/><line style="stroke:#181818;stroke-width:0.5;" x1="1348.9311" x2="1342.9311" y1="1755.8769" y2="1755.8769"/><text fill="#000000" font-family="sans-serif" font-size="14" font-style="italic" lengthAdjust="spacing" textLength="51.5225" x="1254.2343" y="1770.872">&#171;yaml&#187;</text><text fill="#000000" font-family="sans-serif" font-size="14" lengthAdjust="spacing" textLength="107.8711" x="1226.06" y="1787.1689">campaign.yaml</text></g><!--link ACT to YAML--><g class="link" data-entity-1="ACT" data-entity-2="YAML" data-source-line="67" data-uid="lnk37" id="link_ACT_YAML"><path d="M1306.75,98.4869 C1395.56,144.7469 1640,272.0869 1640,272.0869 C1640,272.0869 1640,272.0869 1640,1683.8769 C1640,1683.8769 1463.4245,1727.5464 1360.1145,1753.0964" fill="none" id="ACT-to-YAML" style="stroke:#181818;stroke-width:1;"/><polygon fill="#181818" points="1354.29,1754.5369,1363.9871,1756.2592,1359.1438,1753.3365,1362.0665,1748.4931,1354.29,1754.5369" style="stroke:#181818;stroke-width:1;"/><text fill="#000000" font-family="sans-serif" font-size="13" lengthAdjust="spacing" textLength="49.207" x="1641" y="982.0538">Defines</text></g><!--link ICampaignYAML to YAML--><g class="link" data-entity-1="ICampaignYAML" data-entity-2="YAML" data-source-line="68" data-uid="lnk38" id="link_ICampaignYAML_YAML"><path d="M939.75,1572.9069 C980.48,1596.3569 1153.04,1695.6969 1237.73,1744.4569" fill="none" id="ICampaignYAML-YAML" style="stroke:#181818;stroke-width:1;"/></g><!--link ICampaignSpec to PARSE--><g class="link" data-entity-1="ICampaignSpec" data-entity-2="PARSE" data-source-line="69" data-uid="lnk39" id="link_ICampaignSpec_PARSE"><path d="M923,1246.0369 C923,1274.6069 923,1374.6369 923,1419.9569" fill="none" id="ICampaignSpec-PARSE" style="stroke:#181818;stroke-width:1;"/></g><!--link ITargets to SCN--><g class="link" data-entity-1="ITargets" data-entity-2="SCN" data-source-line="70" data-uid="lnk40" id="link_ITargets_SCN"><path d="M922.28,918.6269 C923.27,945.3769 926.6,1035.3869 928.17,1077.7369" fill="none" id="ITargets-SCN" style="stroke:#181818;stroke-width:1;"/></g><!--link IModuleExecutor to EXEC--><g class="link" data-entity-1="IModuleExecutor" data-entity-2="EXEC" data-source-line="71" data-uid="lnk41" id="link_IModuleExecutor_EXEC"><path d="M662.56,918.6269 C661,945.3769 655.77,1035.3869 653.3,1077.7369" fill="none" id="IModuleExecutor-EXEC" style="stroke:#181818;stroke-width:1;"/></g><!--link IModule to MOD_ABI--><g class="link" data-entity-1="IModule" data-entity-2="MOD_ABI" data-source-line="72" data-uid="lnk42" id="link_IModule_MOD_ABI"><path d="M566.27,1241.0169 C506.24,1259.8269 157,1369.2769 157,1369.2769 C157,1369.2769 133.62,1391.8269 112.79,1411.9169" fill="none" id="IModule-MOD_ABI" style="stroke:#181818;stroke-width:1;"/></g><!--link IModule to MOD_GPR--><g class="link" data-entity-1="IModule" data-entity-2="MOD_GPR" data-source-line="73" data-uid="lnk43" id="link_IModule_MOD_GPR"><path d="M566.1,1242.9369 C521.57,1266.2769 325,1369.2769 325,1369.2769 C325,1369.2769 299.16,1391.8269 276.14,1411.9169" fill="none" id="IModule-MOD_GPR" style="stroke:#181818;stroke-width:1;"/></g><!--link IModule to MOD_CLI--><g class="link" data-entity-1="IModule" data-entity-2="MOD_CLI" data-source-line="74" data-uid="lnk44" id="link_IModule_MOD_CLI"><path d="M568.39,1246.0369 C545.42,1273.0069 468.23,1363.6369 427.18,1411.8369" fill="none" id="IModule-MOD_CLI" style="stroke:#181818;stroke-width:1;"/></g><!--link IResults to RUN--><g class="link" data-entity-1="IResults" data-entity-2="RUN" data-source-line="75" data-uid="lnk45" id="link_IResults_RUN"><path d="M582.61,609.5769 C606.79,634.6469 682.51,713.1569 720.22,752.2469" fill="none" id="IResults-RUN" style="stroke:#181818;stroke-width:1;"/></g><!--link IModuleAssertions to RUN--><g class="link" data-entity-1="IModuleAssertions" data-entity-2="RUN" data-source-line="76" data-uid="lnk46" id="link_IModuleAssertions_RUN"><path d="M717.18,609.5769 C720.95,634.6469 732.74,713.1569 738.61,752.2469" fill="none" id="IModuleAssertions-RUN" style="stroke:#181818;stroke-width:1;"/></g><!--link IReport to REP_JSON--><g class="link" data-entity-1="IReport" data-entity-2="REP_JSON" data-source-line="77" data-uid="lnk47" id="link_IReport_REP_JSON"><path d="M823,281.8869 C823,306.2169 823,381.7269 823,424.6869" fill="none" id="IReport-REP_JSON" style="stroke:#181818;stroke-width:1;"/></g><!--link IReport to REP_MD--><g class="link" data-entity-1="IReport" data-entity-2="REP_MD" data-source-line="78" data-uid="lnk48" id="link_IReport_REP_MD"><path d="M814.66,281.8869 C788.63,306.2169 707.82,381.7269 661.85,424.6869" fill="none" id="IReport-REP_MD" style="stroke:#181818;stroke-width:1;"/></g><!--link IAttackReport to ATK--><g class="link" data-entity-1="IAttackReport" data-entity-2="ATK" data-source-line="79" data-uid="lnk49" id="link_IAttackReport_ATK"><path d="M1191.87,281.8869 C1191.44,307.8369 1190.05,392.0569 1189.37,432.8369" fill="none" id="IAttackReport-ATK" style="stroke:#181818;stroke-width:1;"/></g><!--link IWebCommands to WEB--><g class="link" data-entity-1="IWebCommands" data-entity-2="WEB" data-source-line="80" data-uid="lnk50" id="link_IWebCommands_WEB"><path d="M1475.17,917.9369 C1442.36,943.7969 1326.52,1035.0969 1272.34,1077.7969" fill="none" id="IWebCommands-WEB" style="stroke:#181818;stroke-width:1;"/></g><!--link IScannerCmd to WEB--><g class="link" data-entity-1="IScannerCmd" data-entity-2="WEB" data-source-line="81" data-uid="lnk51" id="link_IScannerCmd_WEB"><path d="M1137.49,918.6269 C1153.19,945.3769 1206.01,1035.3869 1230.86,1077.7369" fill="none" id="IScannerCmd-WEB" style="stroke:#181818;stroke-width:1;"/></g><!--link IRunnerCmd to WEB--><g class="link" data-entity-1="IRunnerCmd" data-entity-2="WEB" data-source-line="82" data-uid="lnk52" id="link_IRunnerCmd_WEB"><path d="M1310.21,918.6269 C1300.45,945.3769 1267.62,1035.3869 1252.17,1077.7369" fill="none" id="IRunnerCmd-WEB" style="stroke:#181818;stroke-width:1;"/></g><!--link IScannerInfo to SCN--><g class="link" data-entity-1="IScannerInfo" data-entity-2="SCN" data-source-line="83" data-uid="lnk53" id="link_IScannerInfo_SCN"><path d="M1101.27,1229.4669 C1078.5,1211.6969 1019,1165.2769 1019,1165.2769 C1019,1165.2769 987.06,1142.8669 961.24,1124.7469" fill="none" id="IScannerInfo-SCN" style="stroke:#181818;stroke-width:1;"/></g><!--link IRunnerInfo to RUN--><g class="link" data-entity-1="IRunnerInfo" data-entity-2="RUN" data-source-line="84" data-uid="lnk54" id="link_IRunnerInfo_RUN"><path d="M1236.8,1228.4069 C1219.87,1209.9269 1179,1165.2769 1179,1165.2769 C1179,1165.2769 1021,1102.1269 1021,1102.1269 C1021,908.9869 1021,908.9869 1021,908.9869 C1021,908.9869 994,837.9869 994,837.9869 C994,837.9869 860.25,805.5269 787.64,787.9069" fill="none" id="IRunnerInfo-RUN" style="stroke:#181818;stroke-width:1;"/></g><!--link PARSE to ICampaignYAML--><g class="link" data-entity-1="PARSE" data-entity-2="ICampaignYAML" data-source-line="86" data-uid="lnk55" id="link_PARSE_ICampaignYAML"><path d="M924.49,1467.1069 C926.3,1494.6469 928.6199,1529.8487 929.8199,1547.9887" fill="none" id="PARSE-to-ICampaignYAML" style="stroke:#181818;stroke-width:1;"/><path d="M938.7156,1554.3372 A9,9 0 0 0 921.838 1555.4537" fill="none" style="stroke:#181818;stroke-width:1.5;"/></g><!--link SCN to ICampaignSpec--><g class="link" data-entity-1="SCN" data-entity-2="ICampaignSpec" data-source-line="87" data-uid="lnk56" id="link_SCN_ICampaignSpec"><path d="M928,1124.5869 C926.63,1155.1669 924.6998,1198.407 923.7998,1218.397" fill="none" id="SCN-to-ICampaignSpec" style="stroke:#181818;stroke-width:1;"/><path d="M931.9371,1225.6922 A9,9 0 0 0 915.0398 1224.9314" fill="none" style="stroke:#181818;stroke-width:1.5;"/></g><!--link RUN to ICampaignSpec--><g class="link" data-entity-1="RUN" data-entity-2="ICampaignSpec" data-source-line="88" data-uid="lnk57" id="link_RUN_ICampaignSpec"><path d="M746.92,799.2469 C755.19,836.9569 771,908.9869 771,908.9869 C771,908.9869 771,908.9869 771,1102.1269 C771,1102.1269 874.7431,1193.689 906.8931,1222.069" fill="none" id="RUN-to-ICampaignSpec" style="stroke:#181818;stroke-width:1;"/><path d="M917.6792,1220.3094 A9,9 0 0 0 906.4854 1232.9901" fill="none" style="stroke:#181818;stroke-width:1.5;"/></g><!--link RUN to ITargets--><g class="link" data-entity-1="RUN" data-entity-2="ITargets" data-source-line="89" data-uid="lnk58" id="link_RUN_ITargets"><path d="M772.53,799.2469 C814.66,830.1769 880.1891,878.2889 905.2791,896.7089" fill="none" id="RUN-to-ITargets" style="stroke:#181818;stroke-width:1;"/><path d="M915.8637,893.9879 A9,9 0 0 0 905.8538 907.6225" fill="none" style="stroke:#181818;stroke-width:1.5;"/></g><!--link RUN to IModuleExecutor--><g class="link" data-entity-1="RUN" data-entity-2="IModuleExecutor" data-source-line="90" data-uid="lnk59" id="link_RUN_IModuleExecutor"><path d="M728.6,799.2469 C710.55,829.4469 684.4721,873.0642 672.7521,892.6642" fill="none" id="RUN-to-IModuleExecutor" style="stroke:#181818;stroke-width:1;"/><path d="M676.4583,902.9453 A9,9 0 0 0 661.9412 894.2647" fill="none" style="stroke:#181818;stroke-width:1.5;"/></g><!--link EXEC to IModule--><g class="link" data-entity-1="EXEC" data-entity-2="IModule" data-source-line="91" data-uid="lnk60" id="link_EXEC_IModule"><path d="M639.11,1124.5869 C621.56,1155.1669 595.9901,1199.7251 584.5101,1219.7151" fill="none" id="EXEC-to-IModule" style="stroke:#181818;stroke-width:1;"/><path d="M588.3968,1229.9293 A9,9 0 0 0 573.7291 1221.5058" fill="none" style="stroke:#181818;stroke-width:1.5;"/></g><!--link REP_JSON to IResults--><g class="link" data-entity-1="REP_JSON" data-entity-2="IResults" data-source-line="92" data-uid="lnk61" id="link_REP_JSON_IResults"><path d="M773.91,488.0269 C754.17,500.3469 736,511.6869 736,511.6869 C736,511.6869 627,528.6869 627,528.6869 C627,528.6869 600.2081,565.2588 586.6681,583.7488" fill="none" id="REP_JSON-to-IResults" style="stroke:#181818;stroke-width:1;"/><path d="M589.402,594.33 A9,9 0 0 0 575.7553 584.3367" fill="none" style="stroke:#181818;stroke-width:1.5;"/></g><!--link REP_MD to IResults--><g class="link" data-entity-1="REP_MD" data-entity-2="IResults" data-source-line="93" data-uid="lnk62" id="link_REP_MD_IResults"><path d="M617.42,487.9169 C604.77,521.2369 588.8881,563.0775 581.5181,582.4975" fill="none" id="REP_MD-to-IResults" style="stroke:#181818;stroke-width:1;"/><path d="M586.9692,591.9697 A9,9 0 0 0 571.1552 585.9682" fill="none" style="stroke:#181818;stroke-width:1.5;"/></g><!--link ATK to IModuleAssertions--><g class="link" data-entity-1="ATK" data-entity-2="IModuleAssertions" data-source-line="94" data-uid="lnk63" id="link_ATK_IModuleAssertions"><path d="M1128.13,475.6969 C1013.86,510.0769 783.8162,579.2864 734.5462,594.1064" fill="none" id="ATK-to-IModuleAssertions" style="stroke:#181818;stroke-width:1;"/><path d="M730.3538,604.199 A9,9 0 0 0 725.4817 588.0014" fill="none" style="stroke:#181818;stroke-width:1.5;"/></g><!--link ACT to IReport--><g class="link" data-entity-1="ACT" data-entity-2="IReport" data-source-line="95" data-uid="lnk64" id="link_ACT_IReport"><path d="M1243.22,95.3169 C1150.58,134.2869 893.308,242.5203 841.138,264.4603" fill="none" id="ACT-to-IReport" style="stroke:#181818;stroke-width:1;"/><path d="M838.036,274.9395 A9,9 0 0 0 831.4789 259.3477" fill="none" style="stroke:#181818;stroke-width:1.5;"/></g><!--link ACT to IAttackReport--><g class="link" data-entity-1="ACT" data-entity-2="IAttackReport" data-source-line="96" data-uid="lnk65" id="link_ACT_IAttackReport"><path d="M1258.6,119.5069 C1238.57,165.3969 1210.0407,230.762 1199.4507,255.022" fill="none" id="ACT-to-IAttackReport" style="stroke:#181818;stroke-width:1;"/><path d="M1204.4324,264.7492 A9,9 0 0 0 1188.9305 257.9823" fill="none" style="stroke:#181818;stroke-width:1.5;"/></g><!--link ACT to IWebCommands--><g class="link" data-entity-1="ACT" data-entity-2="IWebCommands" data-source-line="97" data-uid="lnk66" id="link_ACT_IWebCommands"><path d="M1280.53,119.5069 C1288.69,174.9269 1303,272.0869 1303,272.0869 C1303,272.0869 1303,272.0869 1303,776.8369 C1303,776.8369 1402,837.9869 1402,837.9869 C1402,837.9869 1446.5113,876.5196 1467.6613,894.8396" fill="none" id="ACT-to-IWebCommands" style="stroke:#181818;stroke-width:1;"/><path d="M1478.4305,892.979 A9,9 0 0 0 1467.3561 905.764" fill="none" style="stroke:#181818;stroke-width:1.5;"/></g><!--link SCN to IScannerCmd--><g class="link" data-entity-1="SCN" data-entity-2="IScannerCmd" data-source-line="98" data-uid="lnk67" id="link_SCN_IScannerCmd"><path d="M953.4,1077.5069 C999.05,1035.1769 1088.0581,952.6571 1117.1581,925.6671" fill="none" id="SCN-to-IScannerCmd" style="stroke:#181818;stroke-width:1;"/><path d="M1116.482,914.7594 A9,9 0 0 0 1127.9843 927.1609" fill="none" style="stroke:#181818;stroke-width:1.5;"/></g><!--link RUN to IRunnerCmd--><g class="link" data-entity-1="RUN" data-entity-2="IRunnerCmd" data-source-line="99" data-uid="lnk68" id="link_RUN_IRunnerCmd"><path d="M787.44,782.5869 C907.68,797.8069 1225,837.9869 1225,837.9869 C1225,837.9869 1274.1973,877.6776 1296.4573,895.6376" fill="none" id="RUN-to-IRunnerCmd" style="stroke:#181818;stroke-width:1;"/><path d="M1307.1549,893.402 A9,9 0 0 0 1296.5338 906.566" fill="none" style="stroke:#181818;stroke-width:1.5;"/></g><!--link WEB to IScannerInfo--><g class="link" data-entity-1="WEB" data-entity-2="IScannerInfo" data-source-line="100" data-uid="lnk69" id="link_WEB_IScannerInfo"><path d="M1220.9,1124.5769 C1202.22,1142.7269 1179,1165.2769 1179,1165.2769 C1179,1165.2769 1142.5795,1202.7556 1124.6195,1221.2356" fill="none" id="WEB-to-IScannerInfo" style="stroke:#181818;stroke-width:1;"/><path d="M1125.8602,1232.0937 A9,9 0 0 0 1113.7304 1220.3052" fill="none" style="stroke:#181818;stroke-width:1.5;"/></g><!--link WEB to IRunnerInfo--><g class="link" data-entity-1="WEB" data-entity-2="IRunnerInfo" data-source-line="101" data-uid="lnk70" id="link_WEB_IRunnerInfo"><path d="M1244,1124.5869 C1244,1155.1669 1244,1198.3969 1244,1218.3869" fill="none" id="WEB-to-IRunnerInfo" style="stroke:#181818;stroke-width:1;"/><path d="M1252.4572,1225.3087 A9,9 0 0 0 1235.5428 1225.3087" fill="none" style="stroke:#181818;stroke-width:1.5;"/></g><!--SRC=[XLNTRjem5BxtKvnoKth1jFLd5nEgb8PeOeKM0LCxeMhoWWaHYHCvHYsQAkqXzeHxalcNsCxKSHL_ttT-VNmuFU5RKXBWrG4XdlE2m2t3EqBXpw_V45TbNL52EOnod35S0ZezgHdEIWm5FbHx3gJO8NGA1TbmuGHOdcqvh7D6KfvNL33DBgSrbhQfzRRW1n57IZ3D2e9QIP5JmWyrWReg3lBWEMYsU5qzvpI33IuQdtjck7x8rtmBvvVlFOPMQzAG6WAOORgJyCML1zSutU6CX2aYdFAAGU- -9WoBhnxW1g9uYJ3Z-KQGq4jnMUCye-yEk2mK_osQJc0ubEVhQuICQ-Zf3Yl9BVn42E18ZMd6IDCeRl91a21-gzYuXXbc3M5Fafr5yqMYwFwPiBCI6LDPUqXNjwX9wkia8dIlNZwB55CgEguJEhS9ATWaieZlMlTBp3B2TVxsq76Ql91qByT3UxsmNkVxezFvL-rqDQtMUt4JsgJIPFAOn6r8hR027Td7GgshQRavQVQ5JTqSGike4UsNcJUkZnRjb3edTIKesy1BM-gNnVqTQD9MdCo-AtGuP0ONGwDxWDbE33xj6an7NRafHcAs5ldTIItYN7p2fCfoFGcJAvkTePQC41KgMjwshZNf1d2HJfYuefnL1SmAJ0dq7yWFY6RZCntneureO1Nj8Rbfemb2RA4IqxLfkGEqAZEFXj12YvLhfotxZin0hifOZkccybn98FJLYjgpwi6hy-2J5t4z51UWvqLNaZmkLVMhw6PiY2UGnFH-z5rYucfB1QkBNMNpMNpK6TddsJoKnPEkDucvCf6Rs5tW_mQ3QxMnFi68RCJgRP2tGence3J8snf7Ikya- -vTrmEr9e9tQHZrd0q5lf5fnHkiwC0Rh2WSsRViitB1T9vlo-XX3ZpQ9_e6FHqXxpaSIVc4tDbjpUIuEyCA0NESJu1_syY92zhSZc9GCL8t9C_zu0z2s6bXF_X746R_9-ocTx5W1yjRzYbqN7aAj2lNx3NmKT6_mBEpTSqm6mErXbp8sqykuUuIjm7Ewd0hQbU5w7yeLW_VnTjB-0i0]--></g></svg>