<?xml version="1.0" encoding="us-ascii" standalone="no"?><svg xmlns="http://www.w3.org/2000/svg" xmlns:xlink="http://www.w3.org/1999/xlink" contentStyleType="text/css" height="1569px" preserveAspectRatio="none" style="width:3684px;height:1569px;background:#FFFFFF;" version="1.1" viewBox="0 0 3684 1569" width="3684px" zoomAndPan="magnify"><defs/><g><text fill="#000000" font-family="sans-serif" font-size="14" font-weight="bold" lengthAdjust="spacing" textLength="216" x="1725.25" y="24.9659">Kraken &#8212; Component Diagram</text><!--cluster Artificats--><g id="cluster_Artificats"><path d="M168,701.6699 L217,701.6699 A15,15 0 0 1 227,711.6699 L234,726.7378 L326,726.7378 A10,10 0 0 1 336,736.7378 L336,941.6699 A10,10 0 0 1 326,951.6699 L168,951.6699 A10,10 0 0 1 158,941.6699 L158,711.6699 A10,10 0 0 1 168,701.6699 " fill="#D9D9D9" style="stroke:#5C5C5C;stroke-width:1.0;"/><line style="stroke:#5C5C5C;stroke-width:1.0;" x1="158" x2="234" y1="726.7378" y2="726.7378"/><text fill="#000000" font-family="sans-serif" font-size="14" font-weight="bold" lengthAdjust="spacing" textLength="63" x="162" y="718.6358">Artificats</text></g><!--cluster K--><g id="cluster_K"><path d="M416,46.6699 L451,46.6699 A15,15 0 0 1 461,56.6699 L468,71.7378 L3663.5,71.7378 A10,10 0 0 1 3673.5,81.7378 L3673.5,1168.6699 A10,10 0 0 1 3663.5,1178.6699 L416,1178.6699 A10,10 0 0 1 406,1168.6699 L406,56.6699 A10,10 0 0 1 416,46.6699 " fill="#D9D9D9" style="stroke:#5C5C5C;stroke-width:1.0;"/><line style="stroke:#5C5C5C;stroke-width:1.0;" x1="406" x2="468" y1="71.7378" y2="71.7378"/><text fill="#000000" font-family="sans-serif" font-size="14" font-weight="bold" lengthAdjust="spacing" textLength="49" x="410" y="63.6358">Kraken</text></g><!--cluster CONF--><g id="cluster_CONF"><path d="M642,562.6699 L724,562.6699 A15,15 0 0 1 734,572.6699 L741,587.7378 L846,587.7378 A10,10 0 0 1 856,597.7378 L856,824.6699 A10,10 0 0 1 846,834.6699 L642,834.6699 A10,10 0 0 1 632,824.6699 L632,572.6699 A10,10 0 0 1 642,562.6699 " fill="#D9D9D9" style="stroke:#5C5C5C;stroke-width:1.0;"/><line style="stroke:#5C5C5C;stroke-width:1.0;" x1="632" x2="741" y1="587.7378" y2="587.7378"/><text fill="#000000" font-family="sans-serif" font-size="14" font-weight="bold" lengthAdjust="spacing" textLength="96" x="636" y="579.6358">Configuration</text></g><!--cluster SCAN--><g id="cluster_SCAN"><path d="M1056.5,92.6699 L1215.5,92.6699 A15,15 0 0 1 1225.5,102.6699 L1232.5,117.7378 L2232,117.7378 A10,10 0 0 1 2242,127.7378 L2242,450.6699 A10,10 0 0 1 2232,460.6699 L1056.5,460.6699 A10,10 0 0 1 1046.5,450.6699 L1046.5,102.6699 A10,10 0 0 1 1056.5,92.6699 " fill="#D9D9D9" style="stroke:#5C5C5C;stroke-width:1.0;"/><line style="stroke:#5C5C5C;stroke-width:1.0;" x1="1046.5" x2="1232.5" y1="117.7378" y2="117.7378"/><text fill="#000000" font-family="sans-serif" font-size="14" font-weight="bold" lengthAdjust="spacing" textLength="173" x="1050.5" y="109.6358">Scanning &amp; Classification</text></g><!--cluster SCAN_CORE--><g id="cluster_SCAN_CORE"><path d="M1080.5,210.6699 L1157.5,210.6699 A15,15 0 0 1 1167.5,220.6699 L1174.5,235.7378 L1626.5,235.7378 A10,10 0 0 1 1636.5,245.7378 L1636.5,426.6699 A10,10 0 0 1 1626.5,436.6699 L1080.5,436.6699 A10,10 0 0 1 1070.5,426.6699 L1070.5,220.6699 A10,10 0 0 1 1080.5,210.6699 " fill="#D9D9D9" style="stroke:#5C5C5C;stroke-width:1.0;"/><line style="stroke:#5C5C5C;stroke-width:1.0;" x1="1070.5" x2="1174.5" y1="235.7378" y2="235.7378"/><text fill="#000000" font-family="sans-serif" font-size="14" font-weight="bold" lengthAdjust="spacing" textLength="91" x="1074.5" y="227.6358">Scanner Core</text></g><!--cluster EXEC--><g id="cluster_EXEC"><path d="M1035,502.6699 L1182,502.6699 A15,15 0 0 1 1192,512.6699 L1199,527.7378 L3639.5,527.7378 A10,10 0 0 1 3649.5,537.7378 L3649.5,932.6699 A10,10 0 0 1 3639.5,942.6699 L1035,942.6699 A10,10 0 0 1 1025,932.6699 L1025,512.6699 A10,10 0 0 1 1035,502.6699 " fill="#D9D9D9" style="stroke:#5C5C5C;stroke-width:1.0;"/><line style="stroke:#5C5C5C;stroke-width:1.0;" x1="1025" x2="1199" y1="527.7378" y2="527.7378"/><text fill="#000000" font-family="sans-serif" font-size="14" font-weight="bold" lengthAdjust="spacing" textLength="161" x="1029" y="519.6358">Execution Orchestrator</text></g><!--cluster RUNNER_CORE--><g id="cluster_RUNNER_CORE"><path d="M1059,646.6699 L1131,646.6699 A15,15 0 0 1 1141,656.6699 L1148,671.7378 L1945,671.7378 A10,10 0 0 1 1955,681.7378 L1955,829.6699 A10,10 0 0 1 1945,839.6699 L1059,839.6699 A10,10 0 0 1 1049,829.6699 L1049,656.6699 A10,10 0 0 1 1059,646.6699 " fill="#D9D9D9" style="stroke:#5C5C5C;stroke-width:1.0;"/><line style="stroke:#5C5C5C;stroke-width:1.0;" x1="1049" x2="1148" y1="671.7378" y2="671.7378"/><text fill="#000000" font-family="sans-serif" font-size="14" font-weight="bold" lengthAdjust="spacing" textLength="86" x="1053" y="663.6358">Runner Core</text></g><!--cluster EXEC_NATIVE_PKG--><g id="cluster_EXEC_NATIVE_PKG"><path d="M2848,548.6699 L2935,548.6699 A15,15 0 0 1 2945,558.6699 L2952,573.7378 L3615.5,573.7378 A10,10 0 0 1 3625.5,583.7378 L3625.5,656.6699 A10,10 0 0 1 3615.5,666.6699 L2848,666.6699 A10,10 0 0 1 2838,656.6699 L2838,558.6699 A10,10 0 0 1 2848,548.6699 " fill="#D9D9D9" style="stroke:#5C5C5C;stroke-width:1.0;"/><line style="stroke:#5C5C5C;stroke-width:1.0;" x1="2838" x2="2952" y1="573.7378" y2="573.7378"/><text fill="#000000" font-family="sans-serif" font-size="14" font-weight="bold" lengthAdjust="spacing" textLength="101" x="2842" y="565.6358">Native Builtins</text></g><!--cluster KNOW--><g id="cluster_KNOW"><path d="M2063,966.6699 L2214,966.6699 A15,15 0 0 1 2224,976.6699 L2231,991.7378 L2257,991.7378 A10,10 0 0 1 2267,1001.7378 L2267,1144.6699 A10,10 0 0 1 2257,1154.6699 L2063,1154.6699 A10,10 0 0 1 2053,1144.6699 L2053,976.6699 A10,10 0 0 1 2063,966.6699 " fill="#D9D9D9" style="stroke:#5C5C5C;stroke-width:1.0;"/><line style="stroke:#5C5C5C;stroke-width:1.0;" x1="2053" x2="2231" y1="991.7378" y2="991.7378"/><text fill="#000000" font-family="sans-serif" font-size="14" font-weight="bold" lengthAdjust="spacing" textLength="165" x="2057" y="983.6358">Knowledge &amp; Reporting</text></g><!--cluster IO--><g id="cluster_IO"><path d="M440,730.6699 L546,730.6699 A15,15 0 0 1 556,740.6699 L563,755.7378 L589,755.7378 A10,10 0 0 1 599,765.7378 L599,908.6699 A10,10 0 0 1 589,918.6699 L440,918.6699 A10,10 0 0 1 430,908.6699 L430,740.6699 A10,10 0 0 1 440,730.6699 " fill="#D9D9D9" style="stroke:#5C5C5C;stroke-width:1.0;"/><line style="stroke:#5C5C5C;stroke-width:1.0;" x1="430" x2="563" y1="755.7378" y2="755.7378"/><text fill="#000000" font-family="sans-serif" font-size="14" font-weight="bold" lengthAdjust="spacing" textLength="120" x="434" y="747.6358">IO &amp; Serialization</text></g><!--cluster EXT--><g id="cluster_EXT"><path d="M2848.5,1202.6699 L2954.5,1202.6699 A15,15 0 0 1 2964.5,1212.6699 L2971.5,1227.7378 L3001.5,1227.7378 A10,10 0 0 1 3011.5,1237.7378 L3011.5,1548.6699 A10,10 0 0 1 3001.5,1558.6699 L2848.5,1558.6699 A10,10 0 0 1 2838.5,1548.6699 L2838.5,1212.6699 A10,10 0 0 1 2848.5,1202.6699 " fill="#D9D9D9" style="stroke:#5C5C5C;stroke-width:1.0;"/><line style="stroke:#5C5C5C;stroke-width:1.0;" x1="2838.5" x2="2971.5" y1="1227.7378" y2="1227.7378"/><text fill="#000000" font-family="sans-serif" font-size="14" font-weight="bold" lengthAdjust="spacing" textLength="120" x="2842.5" y="1219.6358">External Modules</text></g><!--entity CAMPAIGN_YAML--><g id="elem_CAMPAIGN_YAML"><rect fill="#FFFFFF" height="42.0679" rx="10" ry="10" style="stroke:#5C5C5C;stroke-width:0.5;" width="133" x="180.5" y="739.6399"/><polygon fill="#FFFFFF" points="296.5,744.6399,296.5,758.6399,308.5,758.6399,308.5,750.6399,302.5,744.6399,296.5,744.6399" style="stroke:#5C5C5C;stroke-width:0.5;"/><line style="stroke:#5C5C5C;stroke-width:0.5;" x1="302.5" x2="302.5" y1="744.6399" y2="750.6399"/><line style="stroke:#5C5C5C;stroke-width:0.5;" x1="308.5" x2="302.5" y1="750.6399" y2="750.6399"/><text fill="#000000" font-family="sans-serif" font-size="14" lengthAdjust="spacing" textLength="103" x="190.5" y="767.6058">campaign.yaml</text></g><!--entity ATTACK_TREES_YAML--><g id="elem_ATTACK_TREES_YAML"><rect fill="#FFFFFF" height="42.0679" rx="10" ry="10" style="stroke:#5C5C5C;stroke-width:0.5;" width="146" x="174" y="816.6399"/><polygon fill="#FFFFFF" points="303,821.6399,303,835.6399,315,835.6399,315,827.6399,309,821.6399,303,821.6399" style="stroke:#5C5C5C;stroke-width:0.5;"/><line style="stroke:#5C5C5C;stroke-width:0.5;" x1="309" x2="309" y1="821.6399" y2="827.6399"/><line style="stroke:#5C5C5C;stroke-width:0.5;" x1="315" x2="309" y1="827.6399" y2="827.6399"/><text fill="#000000" font-family="sans-serif" font-size="14" lengthAdjust="spacing" textLength="116" x="184" y="844.6058">attack_trees.yaml</text></g><!--entity REPORT_JSON--><g id="elem_REPORT_JSON"><rect fill="#FFFFFF" height="42.0679" rx="10" ry="10" style="stroke:#5C5C5C;stroke-width:0.5;" width="104" x="195" y="893.6399"/><polygon fill="#FFFFFF" points="282,898.6399,282,912.6399,294,912.6399,294,904.6399,288,898.6399,282,898.6399" style="stroke:#5C5C5C;stroke-width:0.5;"/><line style="stroke:#5C5C5C;stroke-width:0.5;" x1="288" x2="288" y1="898.6399" y2="904.6399"/><line style="stroke:#5C5C5C;stroke-width:0.5;" x1="294" x2="288" y1="904.6399" y2="904.6399"/><text fill="#000000" font-family="sans-serif" font-size="14" lengthAdjust="spacing" textLength="74" x="205" y="921.6058">report.json</text></g><!--entity CAMP--><g id="elem_CAMP"><rect fill="#F2E3A1" height="49.0679" rx="10" ry="10" style="stroke:#5C5C5C;stroke-width:0.5;" width="155" x="666.5" y="685.1399"/><rect fill="#F2E3A1" height="10" style="stroke:#5C5C5C;stroke-width:0.5;" width="15" x="801.5" y="690.1399"/><rect fill="#F2E3A1" height="2" style="stroke:#5C5C5C;stroke-width:0.5;" width="4" x="799.5" y="692.1399"/><rect fill="#F2E3A1" height="2" style="stroke:#5C5C5C;stroke-width:0.5;" width="4" x="799.5" y="696.1399"/><text fill="#000000" font-family="sans-serif" font-size="14" lengthAdjust="spacing" textLength="115" x="681.5" y="720.1058">Campaign Model</text></g><!--entity TREE_DEF--><g id="elem_TREE_DEF"><rect fill="#F2E3A1" height="49.0679" rx="10" ry="10" style="stroke:#5C5C5C;stroke-width:0.5;" width="192" x="648" y="601.1399"/><rect fill="#F2E3A1" height="10" style="stroke:#5C5C5C;stroke-width:0.5;" width="15" x="820" y="606.1399"/><rect fill="#F2E3A1" height="2" style="stroke:#5C5C5C;stroke-width:0.5;" width="4" x="818" y="608.1399"/><rect fill="#F2E3A1" height="2" style="stroke:#5C5C5C;stroke-width:0.5;" width="4" x="818" y="612.1399"/><text fill="#000000" font-family="sans-serif" font-size="14" lengthAdjust="spacing" textLength="152" x="663" y="636.1058">Attack Tree Definitions</text></g><!--entity MODDEF--><g id="elem_MODDEF"><rect fill="#F2E3A1" height="49.0679" rx="10" ry="10" style="stroke:#5C5C5C;stroke-width:0.5;" width="168" x="660" y="769.1399"/><rect fill="#F2E3A1" height="10" style="stroke:#5C5C5C;stroke-width:0.5;" width="15" x="808" y="774.1399"/><rect fill="#F2E3A1" height="2" style="stroke:#5C5C5C;stroke-width:0.5;" width="4" x="806" y="776.1399"/><rect fill="#F2E3A1" height="2" style="stroke:#5C5C5C;stroke-width:0.5;" width="4" x="806" y="780.1399"/><text fill="#000000" font-family="sans-serif" font-size="14" lengthAdjust="spacing" textLength="128" x="675" y="804.1058">Module Definitions</text></g><!--entity IScannerEngine--><g id="elem_IScannerEngine"><ellipse cx="1544.5" cy="162.6699" fill="#F1F1F1" rx="8" ry="8" style="stroke:#181818;stroke-width:0.5;"/><text fill="#000000" font-family="sans-serif" font-size="14" lengthAdjust="spacing" textLength="107" x="1491" y="194.6358">IScannerEngine</text></g><!--entity SCN_NMAP--><g id="elem_SCN_NMAP"><rect fill="#F2E3A1" height="68.1358" rx="10" ry="10" style="stroke:#5C5C5C;stroke-width:0.5;" width="132" x="2094" y="130.5999"/><rect fill="#F2E3A1" height="10" style="stroke:#5C5C5C;stroke-width:0.5;" width="15" x="2206" y="135.5999"/><rect fill="#F2E3A1" height="2" style="stroke:#5C5C5C;stroke-width:0.5;" width="4" x="2204" y="137.5999"/><rect fill="#F2E3A1" height="2" style="stroke:#5C5C5C;stroke-width:0.5;" width="4" x="2204" y="141.5999"/><text fill="#000000" font-family="sans-serif" font-size="14" font-style="italic" lengthAdjust="spacing" textLength="42" x="2134" y="165.5658">&#171;impl&#187;</text><text fill="#000000" font-family="sans-serif" font-size="14" lengthAdjust="spacing" textLength="92" x="2109" y="184.6338">Nmap Engine</text></g><!--entity SCN--><g id="elem_SCN"><rect fill="#F2E3A1" height="49.0679" rx="10" ry="10" style="stroke:#5C5C5C;stroke-width:0.5;" width="156" x="1086.5" y="302.1399"/><rect fill="#F2E3A1" height="10" style="stroke:#5C5C5C;stroke-width:0.5;" width="15" x="1222.5" y="307.1399"/><rect fill="#F2E3A1" height="2" style="stroke:#5C5C5C;stroke-width:0.5;" width="4" x="1220.5" y="309.1399"/><rect fill="#F2E3A1" height="2" style="stroke:#5C5C5C;stroke-width:0.5;" width="4" x="1220.5" y="313.1399"/><text fill="#000000" font-family="sans-serif" font-size="14" lengthAdjust="spacing" textLength="116" x="1101.5" y="337.1058">Scan Coordinator</text></g><!--entity SCN_NORM--><g id="elem_SCN_NORM"><rect fill="#F2E3A1" height="49.0679" rx="10" ry="10" style="stroke:#5C5C5C;stroke-width:0.5;" width="152" x="1468.5" y="266.1399"/><rect fill="#F2E3A1" height="10" style="stroke:#5C5C5C;stroke-width:0.5;" width="15" x="1600.5" y="271.1399"/><rect fill="#F2E3A1" height="2" style="stroke:#5C5C5C;stroke-width:0.5;" width="4" x="1598.5" y="273.1399"/><rect fill="#F2E3A1" height="2" style="stroke:#5C5C5C;stroke-width:0.5;" width="4" x="1598.5" y="277.1399"/><text fill="#000000" font-family="sans-serif" font-size="14" lengthAdjust="spacing" textLength="112" x="1483.5" y="301.1058">CIDR Normalizer</text></g><!--entity SCN_CLASS--><g id="elem_SCN_CLASS"><rect fill="#F2E3A1" height="49.0679" rx="10" ry="10" style="stroke:#5C5C5C;stroke-width:0.5;" width="150" x="1469.5" y="366.1399"/><rect fill="#F2E3A1" height="10" style="stroke:#5C5C5C;stroke-width:0.5;" width="15" x="1599.5" y="371.1399"/><rect fill="#F2E3A1" height="2" style="stroke:#5C5C5C;stroke-width:0.5;" width="4" x="1597.5" y="373.1399"/><rect fill="#F2E3A1" height="2" style="stroke:#5C5C5C;stroke-width:0.5;" width="4" x="1597.5" y="377.1399"/><text fill="#000000" font-family="sans-serif" font-size="14" lengthAdjust="spacing" textLength="110" x="1484.5" y="401.1058">Target Classifier</text></g><!--entity IModuleExecutor--><g id="elem_IModuleExecutor"><ellipse cx="2160" cy="755.6699" fill="#F1F1F1" rx="8" ry="8" style="stroke:#181818;stroke-width:0.5;"/><text fill="#000000" font-family="sans-serif" font-size="14" lengthAdjust="spacing" textLength="114" x="2103" y="787.6358">IModuleExecutor</text></g><!--entity EXEC_NATIVE--><g id="elem_EXEC_NATIVE"><rect fill="#F2E3A1" height="49.0679" rx="10" ry="10" style="stroke:#5C5C5C;stroke-width:0.5;" width="189" x="2490" y="541.1399"/><rect fill="#F2E3A1" height="10" style="stroke:#5C5C5C;stroke-width:0.5;" width="15" x="2659" y="546.1399"/><rect fill="#F2E3A1" height="2" style="stroke:#5C5C5C;stroke-width:0.5;" width="4" x="2657" y="548.1399"/><rect fill="#F2E3A1" height="2" style="stroke:#5C5C5C;stroke-width:0.5;" width="4" x="2657" y="552.1399"/><text fill="#000000" font-family="sans-serif" font-size="14" lengthAdjust="spacing" textLength="149" x="2505" y="576.1058">Native Builtin Adapter</text></g><!--entity EXEC_ABI--><g id="elem_EXEC_ABI"><rect fill="#F2E3A1" height="49.0679" rx="10" ry="10" style="stroke:#5C5C5C;stroke-width:0.5;" width="176" x="2496.5" y="793.1399"/><rect fill="#F2E3A1" height="10" style="stroke:#5C5C5C;stroke-width:0.5;" width="15" x="2652.5" y="798.1399"/><rect fill="#F2E3A1" height="2" style="stroke:#5C5C5C;stroke-width:0.5;" width="4" x="2650.5" y="800.1399"/><rect fill="#F2E3A1" height="2" style="stroke:#5C5C5C;stroke-width:0.5;" width="4" x="2650.5" y="804.1399"/><text fill="#000000" font-family="sans-serif" font-size="14" lengthAdjust="spacing" textLength="136" x="2511.5" y="828.1058">ABI Module Adapter</text></g><!--entity EXEC_CLI--><g id="elem_EXEC_CLI"><rect fill="#F2E3A1" height="49.0679" rx="10" ry="10" style="stroke:#5C5C5C;stroke-width:0.5;" width="174" x="2497.5" y="625.1399"/><rect fill="#F2E3A1" height="10" style="stroke:#5C5C5C;stroke-width:0.5;" width="15" x="2651.5" y="630.1399"/><rect fill="#F2E3A1" height="2" style="stroke:#5C5C5C;stroke-width:0.5;" width="4" x="2649.5" y="632.1399"/><rect fill="#F2E3A1" height="2" style="stroke:#5C5C5C;stroke-width:0.5;" width="4" x="2649.5" y="636.1399"/><text fill="#000000" font-family="sans-serif" font-size="14" lengthAdjust="spacing" textLength="134" x="2512.5" y="660.1058">CLI Module Adapter</text></g><!--entity EXEC_DOCKER--><g id="elem_EXEC_DOCKER"><rect fill="#F2E3A1" height="49.0679" rx="10" ry="10" style="stroke:#5C5C5C;stroke-width:0.5;" width="199" x="2485" y="877.1399"/><rect fill="#F2E3A1" height="10" style="stroke:#5C5C5C;stroke-width:0.5;" width="15" x="2664" y="882.1399"/><rect fill="#F2E3A1" height="2" style="stroke:#5C5C5C;stroke-width:0.5;" width="4" x="2662" y="884.1399"/><rect fill="#F2E3A1" height="2" style="stroke:#5C5C5C;stroke-width:0.5;" width="4" x="2662" y="888.1399"/><text fill="#000000" font-family="sans-serif" font-size="14" lengthAdjust="spacing" textLength="159" x="2500" y="912.1058">Docker Module Adapter</text></g><!--entity EXEC_GRPC--><g id="elem_EXEC_GRPC"><rect fill="#F2E3A1" height="49.0679" rx="10" ry="10" style="stroke:#5C5C5C;stroke-width:0.5;" width="188" x="2490.5" y="709.1399"/><rect fill="#F2E3A1" height="10" style="stroke:#5C5C5C;stroke-width:0.5;" width="15" x="2658.5" y="714.1399"/><rect fill="#F2E3A1" height="2" style="stroke:#5C5C5C;stroke-width:0.5;" width="4" x="2656.5" y="716.1399"/><rect fill="#F2E3A1" height="2" style="stroke:#5C5C5C;stroke-width:0.5;" width="4" x="2656.5" y="720.1399"/><text fill="#000000" font-family="sans-serif" font-size="14" lengthAdjust="spacing" textLength="148" x="2505.5" y="744.1058">gRPC Module Adapter</text></g><!--entity RUN_ORCH--><g id="elem_RUN_ORCH"><rect fill="#F2E3A1" height="49.0679" rx="10" ry="10" style="stroke:#5C5C5C;stroke-width:0.5;" width="199" x="1065" y="685.1399"/><rect fill="#F2E3A1" height="10" style="stroke:#5C5C5C;stroke-width:0.5;" width="15" x="1244" y="690.1399"/><rect fill="#F2E3A1" height="2" style="stroke:#5C5C5C;stroke-width:0.5;" width="4" x="1242" y="692.1399"/><rect fill="#F2E3A1" height="2" style="stroke:#5C5C5C;stroke-width:0.5;" width="4" x="1242" y="696.1399"/><text fill="#000000" font-family="sans-serif" font-size="14" lengthAdjust="spacing" textLength="159" x="1080" y="720.1058">Campaign Orchestrator</text></g><!--entity RUN_PLAN--><g id="elem_RUN_PLAN"><rect fill="#F2E3A1" height="49.0679" rx="10" ry="10" style="stroke:#5C5C5C;stroke-width:0.5;" width="167" x="1461" y="774.1399"/><rect fill="#F2E3A1" height="10" style="stroke:#5C5C5C;stroke-width:0.5;" width="15" x="1608" y="779.1399"/><rect fill="#F2E3A1" height="2" style="stroke:#5C5C5C;stroke-width:0.5;" width="4" x="1606" y="781.1399"/><rect fill="#F2E3A1" height="2" style="stroke:#5C5C5C;stroke-width:0.5;" width="4" x="1606" y="785.1399"/><text fill="#000000" font-family="sans-serif" font-size="14" lengthAdjust="spacing" textLength="127" x="1476" y="809.1058">Per-Target Planner</text></g><!--entity RUN_DISPATCH--><g id="elem_RUN_DISPATCH"><rect fill="#F2E3A1" height="49.0679" rx="10" ry="10" style="stroke:#5C5C5C;stroke-width:0.5;" width="168" x="1771" y="764.1399"/><rect fill="#F2E3A1" height="10" style="stroke:#5C5C5C;stroke-width:0.5;" width="15" x="1919" y="769.1399"/><rect fill="#F2E3A1" height="2" style="stroke:#5C5C5C;stroke-width:0.5;" width="4" x="1917" y="771.1399"/><rect fill="#F2E3A1" height="2" style="stroke:#5C5C5C;stroke-width:0.5;" width="4" x="1917" y="775.1399"/><text fill="#000000" font-family="sans-serif" font-size="14" lengthAdjust="spacing" textLength="128" x="1786" y="799.1058">Module Dispatcher</text></g><!--entity REGISTRY--><g id="elem_REGISTRY"><rect fill="#F2E3A1" height="49.0679" rx="10" ry="10" style="stroke:#5C5C5C;stroke-width:0.5;" width="142" x="2854" y="588.1399"/><rect fill="#F2E3A1" height="10" style="stroke:#5C5C5C;stroke-width:0.5;" width="15" x="2976" y="593.1399"/><rect fill="#F2E3A1" height="2" style="stroke:#5C5C5C;stroke-width:0.5;" width="4" x="2974" y="595.1399"/><rect fill="#F2E3A1" height="2" style="stroke:#5C5C5C;stroke-width:0.5;" width="4" x="2974" y="599.1399"/><text fill="#000000" font-family="sans-serif" font-size="14" lengthAdjust="spacing" textLength="102" x="2869" y="623.1058">Native Registry</text></g><!--entity INativeModule--><g id="elem_INativeModule"><ellipse cx="3235.5" cy="618.6699" fill="#F1F1F1" rx="8" ry="8" style="stroke:#181818;stroke-width:0.5;"/><text fill="#000000" font-family="sans-serif" font-size="14" lengthAdjust="spacing" textLength="99" x="3186" y="650.6358">INativeModule</text></g><!--entity MOD_NATIVE_GENERIC--><g id="elem_MOD_NATIVE_GENERIC"><rect fill="#F2E3A1" height="49.0679" rx="10" ry="10" style="stroke:#5C5C5C;stroke-width:0.5;" width="194" x="3415.5" y="594.1399"/><rect fill="#F2E3A1" height="10" style="stroke:#5C5C5C;stroke-width:0.5;" width="15" x="3589.5" y="599.1399"/><rect fill="#F2E3A1" height="2" style="stroke:#5C5C5C;stroke-width:0.5;" width="4" x="3587.5" y="601.1399"/><rect fill="#F2E3A1" height="2" style="stroke:#5C5C5C;stroke-width:0.5;" width="4" x="3587.5" y="605.1399"/><text fill="#000000" font-family="sans-serif" font-size="14" lengthAdjust="spacing" textLength="154" x="3430.5" y="629.1058">Generic Native Module</text></g><!--entity ATK--><g id="elem_ATK"><rect fill="#F2E3A1" height="49.0679" rx="10" ry="10" style="stroke:#5C5C5C;stroke-width:0.5;" width="182" x="2069" y="1005.1399"/><rect fill="#F2E3A1" height="10" style="stroke:#5C5C5C;stroke-width:0.5;" width="15" x="2231" y="1010.1399"/><rect fill="#F2E3A1" height="2" style="stroke:#5C5C5C;stroke-width:0.5;" width="4" x="2229" y="1012.1399"/><rect fill="#F2E3A1" height="2" style="stroke:#5C5C5C;stroke-width:0.5;" width="4" x="2229" y="1016.1399"/><text fill="#000000" font-family="sans-serif" font-size="14" lengthAdjust="spacing" textLength="142" x="2084" y="1040.1058">Attack Tree Evaluator</text></g><!--entity REP_JSON--><g id="elem_REP_JSON"><rect fill="#F2E3A1" height="49.0679" rx="10" ry="10" style="stroke:#5C5C5C;stroke-width:0.5;" width="137" x="2091.5" y="1089.1399"/><rect fill="#F2E3A1" height="10" style="stroke:#5C5C5C;stroke-width:0.5;" width="15" x="2208.5" y="1094.1399"/><rect fill="#F2E3A1" height="2" style="stroke:#5C5C5C;stroke-width:0.5;" width="4" x="2206.5" y="1096.1399"/><rect fill="#F2E3A1" height="2" style="stroke:#5C5C5C;stroke-width:0.5;" width="4" x="2206.5" y="1100.1399"/><text fill="#000000" font-family="sans-serif" font-size="14" lengthAdjust="spacing" textLength="97" x="2106.5" y="1124.1058">JSON Reporter</text></g><!--entity YAML_DEC--><g id="elem_YAML_DEC"><rect fill="#F2E3A1" height="49.0679" rx="10" ry="10" style="stroke:#5C5C5C;stroke-width:0.5;" width="137" x="446" y="769.1399"/><rect fill="#F2E3A1" height="10" style="stroke:#5C5C5C;stroke-width:0.5;" width="15" x="563" y="774.1399"/><rect fill="#F2E3A1" height="2" style="stroke:#5C5C5C;stroke-width:0.5;" width="4" x="561" y="776.1399"/><rect fill="#F2E3A1" height="2" style="stroke:#5C5C5C;stroke-width:0.5;" width="4" x="561" y="780.1399"/><text fill="#000000" font-family="sans-serif" font-size="14" lengthAdjust="spacing" textLength="97" x="461" y="804.1058">YAML Decoder</text></g><!--entity JSON_ENC--><g id="elem_JSON_ENC"><rect fill="#F2E3A1" height="49.0679" rx="10" ry="10" style="stroke:#5C5C5C;stroke-width:0.5;" width="133" x="448" y="853.1399"/><rect fill="#F2E3A1" height="10" style="stroke:#5C5C5C;stroke-width:0.5;" width="15" x="561" y="858.1399"/><rect fill="#F2E3A1" height="2" style="stroke:#5C5C5C;stroke-width:0.5;" width="4" x="559" y="860.1399"/><rect fill="#F2E3A1" height="2" style="stroke:#5C5C5C;stroke-width:0.5;" width="4" x="559" y="864.1399"/><text fill="#000000" font-family="sans-serif" font-size="14" lengthAdjust="spacing" textLength="93" x="463" y="888.1058">JSON Encoder</text></g><!--entity MOD_ABI--><g id="elem_MOD_ABI"><rect fill="#F2E3A1" height="49.0679" rx="10" ry="10" style="stroke:#5C5C5C;stroke-width:0.5;" width="118" x="2866" y="1409.1399"/><rect fill="#F2E3A1" height="10" style="stroke:#5C5C5C;stroke-width:0.5;" width="15" x="2964" y="1414.1399"/><rect fill="#F2E3A1" height="2" style="stroke:#5C5C5C;stroke-width:0.5;" width="4" x="2962" y="1416.1399"/><rect fill="#F2E3A1" height="2" style="stroke:#5C5C5C;stroke-width:0.5;" width="4" x="2962" y="1420.1399"/><text fill="#000000" font-family="sans-serif" font-size="14" lengthAdjust="spacing" textLength="78" x="2881" y="1444.1058">ABI Module</text></g><!--entity MOD_GRPC--><g id="elem_MOD_GRPC"><rect fill="#F2E3A1" height="49.0679" rx="10" ry="10" style="stroke:#5C5C5C;stroke-width:0.5;" width="130" x="2860" y="1325.1399"/><rect fill="#F2E3A1" height="10" style="stroke:#5C5C5C;stroke-width:0.5;" width="15" x="2970" y="1330.1399"/><rect fill="#F2E3A1" height="2" style="stroke:#5C5C5C;stroke-width:0.5;" width="4" x="2968" y="1332.1399"/><rect fill="#F2E3A1" height="2" style="stroke:#5C5C5C;stroke-width:0.5;" width="4" x="2968" y="1336.1399"/><text fill="#000000" font-family="sans-serif" font-size="14" lengthAdjust="spacing" textLength="90" x="2875" y="1360.1058">gRPC Module</text></g><!--entity MOD_CLI--><g id="elem_MOD_CLI"><rect fill="#F2E3A1" height="49.0679" rx="10" ry="10" style="stroke:#5C5C5C;stroke-width:0.5;" width="116" x="2867" y="1241.1399"/><rect fill="#F2E3A1" height="10" style="stroke:#5C5C5C;stroke-width:0.5;" width="15" x="2963" y="1246.1399"/><rect fill="#F2E3A1" height="2" style="stroke:#5C5C5C;stroke-width:0.5;" width="4" x="2961" y="1248.1399"/><rect fill="#F2E3A1" height="2" style="stroke:#5C5C5C;stroke-width:0.5;" width="4" x="2961" y="1252.1399"/><text fill="#000000" font-family="sans-serif" font-size="14" lengthAdjust="spacing" textLength="76" x="2882" y="1276.1058">CLI Module</text></g><!--entity MOD_DOCKER--><g id="elem_MOD_DOCKER"><rect fill="#F2E3A1" height="49.0679" rx="10" ry="10" style="stroke:#5C5C5C;stroke-width:0.5;" width="141" x="2854.5" y="1493.1399"/><rect fill="#F2E3A1" height="10" style="stroke:#5C5C5C;stroke-width:0.5;" width="15" x="2975.5" y="1498.1399"/><rect fill="#F2E3A1" height="2" style="stroke:#5C5C5C;stroke-width:0.5;" width="4" x="2973.5" y="1500.1399"/><rect fill="#F2E3A1" height="2" style="stroke:#5C5C5C;stroke-width:0.5;" width="4" x="2973.5" y="1504.1399"/><text fill="#000000" font-family="sans-serif" font-size="14" lengthAdjust="spacing" textLength="101" x="2869.5" y="1528.1058">Docker Module</text></g><!--entity ACT--><g id="elem_ACT"><ellipse cx="36.5" cy="850.6399" fill="#A1B5F2" rx="8" ry="8" style="stroke:#5C5C5C;stroke-width:0.5;"/><path d="M36.5,858.6399 L36.5,885.6399 M23.5,866.6399 L49.5,866.6399 M36.5,885.6399 L23.5,900.6399 M36.5,885.6399 L49.5,900.6399 " fill="none" style="stroke:#5C5C5C;stroke-width:0.5;"/><text fill="#454645" font-family="sans-serif" font-size="14" lengthAdjust="spacing" textLength="61" x="6" y="917.1058">Operator</text></g><!--entity DOCKERFILE--><g id="elem_DOCKERFILE"><rect fill="#FFFFFF" height="42.0679" rx="10" ry="10" style="stroke:#5C5C5C;stroke-width:0.5;" width="97" x="2111.5" y="1496.6399"/><polygon fill="#FFFFFF" points="2191.5,1501.6399,2191.5,1515.6399,2203.5,1515.6399,2203.5,1507.6399,2197.5,1501.6399,2191.5,1501.6399" style="stroke:#5C5C5C;stroke-width:0.5;"/><line style="stroke:#5C5C5C;stroke-width:0.5;" x1="2197.5" x2="2197.5" y1="1501.6399" y2="1507.6399"/><line style="stroke:#5C5C5C;stroke-width:0.5;" x1="2203.5" x2="2197.5" y1="1507.6399" y2="1507.6399"/><text fill="#000000" font-family="sans-serif" font-size="14" lengthAdjust="spacing" textLength="67" x="2121.5" y="1524.6058">Dockerfile</text></g><!--entity IDockerImage--><g id="elem_IDockerImage"><ellipse cx="2369" cy="1517.6699" fill="#F1F1F1" rx="8" ry="8" style="stroke:#181818;stroke-width:0.5;"/><text fill="#000000" font-family="sans-serif" font-size="14" lengthAdjust="spacing" textLength="94" x="2322" y="1549.6358">IDockerImage</text></g><!--link DOCKERFILE to IDockerImage--><g id="link_DOCKERFILE_IDockerImage"><path d="M2208.75,1517.6699 C2259.61,1517.6699 2326.08,1517.6699 2350.34,1517.6699 " fill="none" id="DOCKERFILE-to-IDockerImage" style="stroke:#454645;stroke-width:1.0;"/><path d="M2357.2618,1509.2127 A9,9 0 0 0 2357.2618 1526.1271" fill="none" style="stroke:#454645;stroke-width:1.5;"/></g><!--link ACT to CAMPAIGN_YAML--><g id="link_ACT_CAMPAIGN_YAML"><path d="M67.22,856.0299 C76.57,848.2899 87.05,839.9199 97,832.6699 C119.62,816.1899 125.1,811.4399 150,798.6699 C161.56,792.7399 168.723,789.3825 181.003,784.3825 " fill="none" id="ACT-to-CAMPAIGN_YAML" style="stroke:#454645;stroke-width:1.0;"/><polygon fill="#454645" points="186.56,782.1199,176.716,781.8092,181.9291,784.0054,179.7329,789.2185,186.56,782.1199" style="stroke:#454645;stroke-width:1.0;"/><text fill="#000000" font-family="sans-serif" font-size="13" lengthAdjust="spacing" textLength="43" x="98" y="798.8469">defines</text></g><!--link ACT to ATTACK_TREES_YAML--><g id="link_ACT_ATTACK_TREES_YAML"><path d="M67.37,875.3699 C95.07,869.5199 131.5192,861.8284 168.0192,854.1284 " fill="none" id="ACT-to-ATTACK_TREES_YAML" style="stroke:#454645;stroke-width:1.0;"/><polygon fill="#454645" points="173.89,852.8899,164.2582,850.8338,168.9977,853.922,165.9095,858.6615,173.89,852.8899" style="stroke:#454645;stroke-width:1.0;"/><text fill="#000000" font-family="sans-serif" font-size="13" lengthAdjust="spacing" textLength="43" x="98" y="855.5669">defines</text></g><!--link CAMPAIGN_YAML to YAML_DEC--><g id="link_CAMPAIGN_YAML_YAML_DEC"><path d="M313.97,768.8699 C354.05,773.8499 399.1659,779.4593 439.6059,784.4893 " fill="none" id="CAMPAIGN_YAML-to-YAML_DEC" style="stroke:#454645;stroke-width:1.0;"/><polygon fill="#454645" points="445.56,785.2299,437.1225,780.1496,440.5982,784.6127,436.1351,788.0884,445.56,785.2299" style="stroke:#454645;stroke-width:1.0;"/></g><!--link ATTACK_TREES_YAML to YAML_DEC--><g id="link_ATTACK_TREES_YAML_YAML_DEC"><path d="M320.2,825.6999 C359.35,819.2199 401.5406,812.2198 439.9606,805.8598 " fill="none" id="ATTACK_TREES_YAML-to-YAML_DEC" style="stroke:#454645;stroke-width:1.0;"/><polygon fill="#454645" points="445.88,804.8799,436.3476,802.4034,440.9471,805.6965,437.6541,810.296,445.88,804.8799" style="stroke:#454645;stroke-width:1.0;"/></g><!--link YAML_DEC to CAMP--><g id="link_YAML_DEC_CAMP"><path d="M579.06,768.6999 C593.79,763.0199 609.41,757.0699 624,751.6699 C639.21,746.0499 649.9045,742.1637 665.4845,736.6437 " fill="none" id="YAML_DEC-to-CAMP" style="stroke:#454645;stroke-width:1.0;"/><polygon fill="#454645" points="671.14,734.6399,661.3209,733.8752,666.4271,736.3097,663.9925,741.4159,671.14,734.6399" style="stroke:#454645;stroke-width:1.0;"/></g><!--link YAML_DEC to MODDEF--><g id="link_YAML_DEC_MODDEF"><path d="M583.45,793.6699 C607.41,793.6699 628.62,793.6699 653.71,793.6699 " fill="none" id="YAML_DEC-to-MODDEF" style="stroke:#454645;stroke-width:1.0;"/><polygon fill="#454645" points="659.71,793.6699,650.71,789.6699,654.71,793.6699,650.71,797.6699,659.71,793.6699" style="stroke:#454645;stroke-width:1.0;"/></g><!--link YAML_DEC to TREE_DEF--><g id="link_YAML_DEC_TREE_DEF"><path d="M531.12,768.6899 C549.95,740.4799 584.08,694.9599 624,667.6699 C633.59,661.1199 638.8087,657.8977 649.7787,653.0677 " fill="none" id="YAML_DEC-to-TREE_DEF" style="stroke:#454645;stroke-width:1.0;"/><polygon fill="#454645" points="655.27,650.6499,645.4212,650.6157,650.6939,652.6647,648.6449,657.9374,655.27,650.6499" style="stroke:#454645;stroke-width:1.0;"/></g><!--link TREE_DEF to ATK--><g id="link_TREE_DEF_ATK"><path d="M788.6,600.6399 C862.96,560.3699 1020.23,485.6699 1163.5,485.6699 C1163.5,485.6699 1163.5,485.6699 1856,485.6699 C2025.23,485.6699 1993.61,657.0999 2037,820.6699 C2043.97,846.9299 2032.16,918.7299 2045,942.6699 C2059.24,969.2199 2080.3736,986.9596 2104.1036,1001.5996 " fill="none" id="TREE_DEF-to-ATK" style="stroke:#454645;stroke-width:1.0;"/><polygon fill="#454645" points="2109.21,1004.7499,2103.6506,996.6201,2104.9547,1002.1246,2099.4502,1003.4286,2109.21,1004.7499" style="stroke:#454645;stroke-width:1.0;"/></g><!--link CAMP to SCN--><g id="link_CAMP_SCN"><path d="M821.74,689.0999 C836.43,683.3999 851.21,676.3199 864,667.6699 C997.47,577.3899 1105.6089,418.8183 1145.0089,356.6283 " fill="none" id="CAMP-to-SCN" style="stroke:#454645;stroke-width:1.0;"/><polygon fill="#454645" points="1148.22,351.5599,1140.0244,357.0218,1145.5441,355.7836,1146.7824,361.3033,1148.22,351.5599" style="stroke:#454645;stroke-width:1.0;"/><text fill="#000000" font-family="sans-serif" font-size="13" lengthAdjust="spacing" textLength="135" x="873" y="540.0769">scanner config + CIDRs</text></g><!--link SCN to SCN_NORM--><g id="link_SCN_SCN_NORM"><path d="M1242.74,334.7299 C1296.02,338.5399 1368.27,340.2299 1431,329.6699 C1448.43,326.7299 1461.0911,323.3754 1477.7911,317.5854 " fill="none" id="SCN-to-SCN_NORM" style="stroke:#454645;stroke-width:1.0;"/><polygon fill="#454645" points="1483.46,315.6199,1473.6463,314.7888,1478.7359,317.2578,1476.2669,322.3474,1483.46,315.6199" style="stroke:#454645;stroke-width:1.0;"/><text fill="#000000" font-family="sans-serif" font-size="13" lengthAdjust="spacing" textLength="123" x="1301" y="325.5669">sanitize target scope</text></g><!--link SCN_NORM to SCN--><g id="link_SCN_NORM_SCN"><path d="M1468.01,293.7299 C1418.45,296.1799 1352.25,300.2799 1294,306.6699 C1277.39,308.4899 1265.5824,310.0316 1248.7424,312.5816 " fill="none" id="SCN_NORM-to-SCN" style="stroke:#454645;stroke-width:1.0;"/><polygon fill="#454645" points="1242.81,313.4799,1252.3074,316.0873,1247.7536,312.7313,1251.1097,308.1775,1242.81,313.4799" style="stroke:#454645;stroke-width:1.0;"/><text fill="#000000" font-family="sans-serif" font-size="13" lengthAdjust="spacing" textLength="105" x="1310" y="291.7069">normalized CIDRs</text></g><!--link SCN to IScannerEngine--><g id="link_SCN_IScannerEngine"><path d="M1220.09,301.7099 C1242.89,291.3699 1269.67,279.3299 1294,268.6699 C1388.84,227.1299 1495.707,182.5407 1526.477,169.7407 " fill="none" id="SCN-to-IScannerEngine" style="stroke:#454645;stroke-width:1.0;"/><path d="M1529.6196,159.2736 A9,9 0 0 0 1536.1162 174.8907" fill="none" style="stroke:#454645;stroke-width:1.5;"/><text fill="#000000" font-family="sans-serif" font-size="13" lengthAdjust="spacing" textLength="135" x="1295" y="206.3669">configure + run engine</text></g><!--link IScannerEngine to SCN_NMAP--><g id="link_IScannerEngine_SCN_NMAP"><path d="M1553.26,162.6999 C1608.84,162.8799 1948.52,163.9799 2093.5,164.4599 " fill="none" id="IScannerEngine-SCN_NMAP" style="stroke:#454645;stroke-width:1.0;stroke-dasharray:7.0,7.0;"/></g><!--link SCN to SCN_CLASS--><g id="link_SCN_SCN_CLASS"><path d="M1241.37,351.6099 C1258.53,356.5499 1276.77,361.2499 1294,364.6699 C1352.21,376.2099 1413.1462,382.3895 1463.0162,386.0595 " fill="none" id="SCN-to-SCN_CLASS" style="stroke:#454645;stroke-width:1.0;"/><polygon fill="#454645" points="1469,386.4999,1460.3178,381.8502,1464.0135,386.1329,1459.7307,389.8286,1469,386.4999" style="stroke:#454645;stroke-width:1.0;"/><text fill="#000000" font-family="sans-serif" font-size="13" lengthAdjust="spacing" textLength="95" x="1315" y="360.5669">raw scan results</text></g><!--link SCN_CLASS to RUN_ORCH--><g id="link_SCN_CLASS_RUN_ORCH"><path d="M1513.98,415.5899 C1443.45,475.0999 1270.4054,621.1403 1199.7454,680.7703 " fill="none" id="SCN_CLASS-to-RUN_ORCH" style="stroke:#454645;stroke-width:1.0;"/><polygon fill="#454645" points="1195.16,684.6399,1204.6179,681.8924,1198.9812,681.4152,1199.4584,675.7785,1195.16,684.6399" style="stroke:#454645;stroke-width:1.0;"/><text fill="#000000" font-family="sans-serif" font-size="13" lengthAdjust="spacing" textLength="99" x="1313" y="489.7469">classified targets</text></g><!--link CAMP to RUN_ORCH--><g id="link_CAMP_RUN_ORCH"><path d="M821.76,709.6699 C890.07,709.6699 984.39,709.6699 1058.68,709.6699 " fill="none" id="CAMP-to-RUN_ORCH" style="stroke:#454645;stroke-width:1.0;"/><polygon fill="#454645" points="1064.68,709.6699,1055.68,705.6699,1059.68,709.6699,1055.68,713.6699,1064.68,709.6699" style="stroke:#454645;stroke-width:1.0;"/><text fill="#000000" font-family="sans-serif" font-size="13" lengthAdjust="spacing" textLength="125" x="878" y="705.5669">runner config + tasks</text></g><!--link RUN_ORCH to RUN_PLAN--><g id="link_RUN_ORCH_RUN_PLAN"><path d="M1264.32,732.9399 C1325.35,747.3099 1396.9298,764.1542 1454.7498,777.7742 " fill="none" id="RUN_ORCH-to-RUN_PLAN" style="stroke:#454645;stroke-width:1.0;"/><polygon fill="#454645" points="1460.59,779.1499,1452.7469,773.1929,1455.7232,778.0035,1450.9126,780.9798,1460.59,779.1499" style="stroke:#454645;stroke-width:1.0;"/><text fill="#000000" font-family="sans-serif" font-size="13" lengthAdjust="spacing" textLength="105" x="1310" y="736.8969">build target plans</text></g><!--link RUN_ORCH to RUN_DISPATCH--><g id="link_RUN_ORCH_RUN_DISPATCH"><path d="M1264.35,707.6199 C1314.39,707.4799 1376.02,708.6699 1431,713.6699 C1570.13,726.3099 1603.64,740.1799 1741,765.6699 C1750.65,767.4599 1754.854,768.2456 1764.864,770.2256 " fill="none" id="RUN_ORCH-to-RUN_DISPATCH" style="stroke:#454645;stroke-width:1.0;"/><polygon fill="#454645" points="1770.75,771.3899,1762.6972,765.7195,1765.845,770.4197,1761.1449,773.5675,1770.75,771.3899" style="stroke:#454645;stroke-width:1.0;"/><text fill="#000000" font-family="sans-serif" font-size="13" lengthAdjust="spacing" textLength="121" x="1484" y="712.5469">schedule executions</text></g><!--link RUN_PLAN to RUN_DISPATCH--><g id="link_RUN_PLAN_RUN_DISPATCH"><path d="M1628.17,795.9899 C1672.26,794.5599 1720.3632,793.0053 1764.5632,791.5653 " fill="none" id="RUN_PLAN-to-RUN_DISPATCH" style="stroke:#454645;stroke-width:1.0;"/><polygon fill="#454645" points="1770.56,791.3699,1761.4345,787.6651,1765.5627,791.5327,1761.695,795.6608,1770.56,791.3699" style="stroke:#454645;stroke-width:1.0;"/><text fill="#000000" font-family="sans-serif" font-size="13" lengthAdjust="spacing" textLength="81" x="1659" y="788.3769">module steps</text></g><!--link RUN_DISPATCH to IModuleExecutor--><g id="link_RUN_DISPATCH_IModuleExecutor"><path d="M1939.2,779.6099 C2015.93,771.2499 2112.2987,760.7521 2141.4187,757.5821 " fill="none" id="RUN_DISPATCH-to-IModuleExecutor" style="stroke:#454645;stroke-width:1.0;"/><path d="M2147.3847,748.4255 A9,9 0 0 0 2149.2151 765.2406" fill="none" style="stroke:#454645;stroke-width:1.5;"/></g><!--link IModuleExecutor to EXEC_NATIVE--><g id="link_IModuleExecutor_EXEC_NATIVE"><path d="M2168.98,751.9299 C2205.26,734.9699 2358.28,663.6199 2485,607.6699 C2497.67,602.0799 2511.31,596.1799 2524.28,590.6299 " fill="none" id="IModuleExecutor-EXEC_NATIVE" style="stroke:#454645;stroke-width:1.0;stroke-dasharray:7.0,7.0;"/></g><!--link IModuleExecutor to EXEC_ABI--><g id="link_IModuleExecutor_EXEC_ABI"><path d="M2168.69,756.7999 C2207.73,762.5299 2386.28,788.7299 2496.01,804.8299 " fill="none" id="IModuleExecutor-EXEC_ABI" style="stroke:#454645;stroke-width:1.0;stroke-dasharray:7.0,7.0;"/></g><!--link IModuleExecutor to EXEC_CLI--><g id="link_IModuleExecutor_EXEC_CLI"><path d="M2168.69,753.7399 C2207.89,743.8999 2387.82,698.7599 2497.42,671.2699 " fill="none" id="IModuleExecutor-EXEC_CLI" style="stroke:#454645;stroke-width:1.0;stroke-dasharray:7.0,7.0;"/></g><!--link IModuleExecutor to EXEC_DOCKER--><g id="link_IModuleExecutor_EXEC_DOCKER"><path d="M2168.69,758.3299 C2209.57,772.4499 2403.47,839.4599 2511.09,876.6499 " fill="none" id="IModuleExecutor-EXEC_DOCKER" style="stroke:#454645;stroke-width:1.0;stroke-dasharray:7.0,7.0;"/></g><!--link IModuleExecutor to EXEC_GRPC--><g id="link_IModuleExecutor_EXEC_GRPC"><path d="M2168.69,755.2699 C2207.06,753.2699 2380.18,744.2599 2490.29,738.5199 " fill="none" id="IModuleExecutor-EXEC_GRPC" style="stroke:#454645;stroke-width:1.0;stroke-dasharray:7.0,7.0;"/></g><!--link EXEC_NATIVE to REGISTRY--><g id="link_EXEC_NATIVE_REGISTRY"><path d="M2679.34,578.6999 C2734.52,586.3599 2797.1869,595.0653 2847.7069,602.0753 " fill="none" id="EXEC_NATIVE-to-REGISTRY" style="stroke:#454645;stroke-width:1.0;"/><polygon fill="#454645" points="2853.65,602.8999,2845.2852,597.7009,2848.6974,602.2127,2844.1856,605.625,2853.65,602.8999" style="stroke:#454645;stroke-width:1.0;"/><text fill="#000000" font-family="sans-serif" font-size="13" lengthAdjust="spacing" textLength="106" x="2715" y="579.4769">lookup descriptor</text></g><!--link REGISTRY to INativeModule--><g id="link_REGISTRY_INativeModule"><path d="M2996.39,614.0399 C3074.99,615.5699 3185.3419,617.7159 3216.7719,618.3259 " fill="none" id="REGISTRY-to-INativeModule" style="stroke:#454645;stroke-width:1.0;"/><path d="M3223.8565,610.0045 A9,9 0 0 0 3223.5283 626.9158" fill="none" style="stroke:#454645;stroke-width:1.5;"/><text fill="#000000" font-family="sans-serif" font-size="13" lengthAdjust="spacing" textLength="119" x="3028.5" y="610.6769">exposes descriptors</text></g><!--link INativeModule to MOD_NATIVE_GENERIC--><g id="link_INativeModule_MOD_NATIVE_GENERIC"><path d="M3244.43,618.6699 C3269.49,618.6699 3349.16,618.6699 3415.01,618.6699 " fill="none" id="INativeModule-MOD_NATIVE_GENERIC" style="stroke:#454645;stroke-width:1.0;stroke-dasharray:7.0,7.0;"/></g><!--link EXEC_ABI to MOD_ABI--><g id="link_EXEC_ABI_MOD_ABI"><path d="M2666.57,842.6199 C2673.28,847.3599 2679.29,852.9799 2684,859.6699 C2747.5,949.7299 2648.56,1265.9999 2714,1354.6699 C2749.16,1402.3099 2810.6693,1420.3207 2859.6593,1427.8307 " fill="none" id="EXEC_ABI-to-MOD_ABI" style="stroke:#454645;stroke-width:1.0;"/><polygon fill="#454645" points="2865.59,1428.7399,2857.3,1423.4223,2860.6477,1427.9823,2856.0878,1431.33,2865.59,1428.7399" style="stroke:#454645;stroke-width:1.0;"/></g><!--link EXEC_CLI to MOD_CLI--><g id="link_EXEC_CLI_MOD_CLI"><path d="M2661.47,674.6799 C2669.7,679.4499 2677.45,685.0699 2684,691.6699 C2848.77,857.6099 2905.5575,1147.4844 2919.4475,1234.8144 " fill="none" id="EXEC_CLI-to-MOD_CLI" style="stroke:#454645;stroke-width:1.0;"/><polygon fill="#454645" points="2920.39,1240.7399,2922.9266,1231.2233,2919.6046,1235.802,2915.026,1232.4799,2920.39,1240.7399" style="stroke:#454645;stroke-width:1.0;"/></g><!--link IDockerImage to MOD_DOCKER--><g id="link_IDockerImage_MOD_DOCKER"><path d="M2377.83,1517.6699 C2429.09,1517.6699 2718.8,1517.6699 2854.22,1517.6699 " fill="none" id="IDockerImage-MOD_DOCKER" style="stroke:#454645;stroke-width:1.0;stroke-dasharray:7.0,7.0;"/><text fill="#000000" font-family="sans-serif" font-size="13" lengthAdjust="spacing" textLength="71" x="2549" y="1513.5669">implements</text></g><!--link EXEC_DOCKER to MOD_DOCKER--><g id="link_EXEC_DOCKER_MOD_DOCKER"><path d="M2588.62,926.4799 C2600.8,1019.7599 2647.73,1348.1499 2714,1426.6699 C2733.03,1449.2199 2794.9768,1474.2478 2848.4068,1492.9478 " fill="none" id="EXEC_DOCKER-to-MOD_DOCKER" style="stroke:#454645;stroke-width:1.0;"/><polygon fill="#454645" points="2854.07,1494.9299,2846.8966,1488.1814,2849.3507,1493.2782,2844.2539,1495.7323,2854.07,1494.9299" style="stroke:#454645;stroke-width:1.0;"/></g><!--link EXEC_GRPC to MOD_GRPC--><g id="link_EXEC_GRPC_MOD_GRPC"><path d="M2664.09,758.4999 C2671.56,763.2799 2678.42,768.9499 2684,775.6699 C2723.28,822.9499 2698.71,851.1399 2714,910.6699 C2759.74,1088.7099 2709.14,1169.1599 2830,1307.6699 C2838.11,1316.9599 2843.3514,1321.5421 2854.4614,1327.2921 " fill="none" id="EXEC_GRPC-to-MOD_GRPC" style="stroke:#454645;stroke-width:1.0;"/><polygon fill="#454645" points="2859.79,1330.0499,2853.6356,1322.3607,2855.3495,1327.7517,2849.9585,1329.4656,2859.79,1330.0499" style="stroke:#454645;stroke-width:1.0;"/></g><!--link RUN_DISPATCH to REP_JSON--><g id="link_RUN_DISPATCH_REP_JSON"><path d="M1879.08,813.3999 C1901.81,837.4099 1937.84,874.5299 1971,904.6699 C1999.05,930.1599 2019.57,925.0199 2037,958.6699 C2048.58,981.0199 2029.88,1051.5399 2045,1071.6699 C2056.27,1086.6799 2067.8288,1094.3424 2085.4888,1100.5424 " fill="none" id="RUN_DISPATCH-to-REP_JSON" style="stroke:#454645;stroke-width:1.0;"/><polygon fill="#454645" points="2091.15,1102.5299,2083.9831,1095.7744,2086.4323,1100.8736,2081.3331,1103.3228,2091.15,1102.5299" style="stroke:#454645;stroke-width:1.0;"/><text fill="#000000" font-family="sans-serif" font-size="13" lengthAdjust="spacing" textLength="64" x="1972" y="900.5669">run results</text></g><!--link REP_JSON to JSON_ENC--><g id="link_REP_JSON_JSON_ENC"><path d="M2091.11,1090.5599 C2075.77,1084.8099 2059.68,1078.3699 2045,1071.6699 C1957.77,1031.8699 1951.88,967.6699 1856,967.6699 C743,967.6699 743,967.6699 743,967.6699 C671.85,967.6699 601.5418,932.2651 557.8818,905.6251 " fill="none" id="REP_JSON-to-JSON_ENC" style="stroke:#454645;stroke-width:1.0;"/><polygon fill="#454645" points="552.76,902.4999,558.3593,910.6022,557.0282,905.1042,562.5262,903.7731,552.76,902.4999" style="stroke:#454645;stroke-width:1.0;"/></g><!--link JSON_ENC to REPORT_JSON--><g id="link_JSON_ENC_REPORT_JSON"><path d="M447.85,886.8199 C401.95,893.2199 347.4726,900.8118 305.1326,906.7118 " fill="none" id="JSON_ENC-to-REPORT_JSON" style="stroke:#454645;stroke-width:1.0;"/><polygon fill="#454645" points="299.19,907.5399,308.6559,910.2595,304.1422,906.8498,307.5518,902.336,299.19,907.5399" style="stroke:#454645;stroke-width:1.0;"/><text fill="#000000" font-family="sans-serif" font-size="13" lengthAdjust="spacing" textLength="36" x="353" y="890.9569">writes</text></g><!--link RUN_DISPATCH to ATK--><g id="link_RUN_DISPATCH_ATK"><path d="M1903.31,813.5799 C1923.98,824.2999 1948.58,836.8299 1971,847.6699 C2000.01,861.6899 2017.93,851.6999 2037,877.6699 C2054.23,901.1299 2030.52,917.4199 2045,942.6699 C2060.11,969.0199 2081.6163,986.839 2105.3263,1001.599 " fill="none" id="RUN_DISPATCH-to-ATK" style="stroke:#454645;stroke-width:1.0;"/><polygon fill="#454645" points="2110.42,1004.7699,2104.8935,996.6178,2106.1753,1002.1275,2100.6656,1003.4093,2110.42,1004.7699" style="stroke:#454645;stroke-width:1.0;"/><text fill="#000000" font-family="sans-serif" font-size="13" lengthAdjust="spacing" textLength="48" x="1980" y="843.5669">findings</text></g><!--link ATK to ACT--><g id="link_ATK_ACT"><path d="M2068.52,1027.8499 C2008.29,1026.7899 1927.42,1025.6699 1856,1025.6699 C246,1025.6699 246,1025.6699 246,1025.6699 C171.43,1025.6699 108.1364,967.0768 71.2164,924.4168 " fill="none" id="ATK-to-ACT" style="stroke:#454645;stroke-width:1.0;"/><polygon fill="#454645" points="67.29,919.8799,70.1551,929.3028,70.562,923.6606,76.2042,924.0676,67.29,919.8799" style="stroke:#454645;stroke-width:1.0;"/><text fill="#000000" font-family="sans-serif" font-size="13" lengthAdjust="spacing" textLength="33" x="924" y="1021.5669">alerts</text></g><!--link ACT to REPORT_JSON--><g id="link_ACT_REPORT_JSON"><path d="M67.22,895.1799 C76.57,898.8799 87.05,902.4699 97,904.6699 C129.02,911.7599 159.782,914.1368 188.772,914.8768 " fill="none" id="ACT-to-REPORT_JSON" style="stroke:#454645;stroke-width:1.0;"/><polygon fill="#454645" points="194.77,915.0299,185.875,910.8015,189.7716,914.9023,185.6709,918.7989,194.77,915.0299" style="stroke:#454645;stroke-width:1.0;"/><text fill="#000000" font-family="sans-serif" font-size="13" lengthAdjust="spacing" textLength="43" x="98" y="900.5669">defines</text></g><!--SRC=[ZLVRRkCs47tNLx1PO7U18i4cHO3j8WYWoBBhEf4CsRqiYi3WohJ3MYO5aifbYm3zY7vXlwJ3goJRITS638LpE9mvCpoZVAVko9QWU_f5OAOYkQ6inW9lKKKPKKyrGJMldZhhWZTiMNB1Y41d7pe6gOWWt6pvAqBe2fURjG4dlEBYugB4snhJDRkyH6-6PybvV7e8XPM2fOKIX4YBZ4yF8mMfkL0Q4vyEpwxE3s4OLlIUBAGIJQaQGJGw_PX-60urceib4GQ9tfmd-XizTnB2fGBBWLpqYLVdmxDly573JhmcXxqCVjJVR_1IyctD6M7gi9_XMVg3vUZ_CXAAhY2j5zoOpujk8aLLHT14u0rXwD-__q5926j0yHeEYA9tg28hXHH7Wgxl55fIGKf5EOjUMeyipKTvJGI6foE49OgJUHHvxevY7JOjiP979dBK9dBak-ha2MyhipU9RwRnU9GjFiStrpleRdUrE-BvF4ucYtcHfhD3ksoddVmfEJFu8ftcnNpnyopFD2yXJakDWKmWKF0IJ0bdAxfk84Fgd2HvDdJP_96u9D0DNvBgrcTXZR696SqXPZGWAygezY4DIeUy6AH3YuJTJRKFkia75lBS2sbMOiOeMwEtAAcmb9PY7zuiYJCNNdy7NFk42n90YoGlKeU463G60D11bEbotbfSvkt9U52WZ8ijhkXN4ioBB2zkF6QEnPge45K7bLp7ivc1FPjVoa1qe4W4ZLrmALk3S5a-iYskaLrepxc9f-ZYWcxhwl9oZvFqaPIDvW3behmZe1kX9TFVqsINaABfyr7yacLfiSD8A6xNvQs3B_8Y-SaZfqGSkzodbSacmARNSQ3GbvdA6YjmsQ86uzaqdZk7UmpPVJP5BXn5HY3HLKChHHcAbxXMpg5EU975y_6lgMl4gp5oP-_XmEPQ-Vfb4DWiQC3B3V3s4cwG9vEqiD1rCKrU18x06FLBqaz87kraifXEHcrf7BWWQmfrUR8yfgFnR5vyTfWEVnPjO_4UHWIgH4laF5cZltN-p54ANJ5EGbNwFJTX_A4YItXy2v5efO5BQKKaot_p4j5LWVGULqteedW-iH2jHyw3xubqQbLgzynn3eVD879z2zjB3ylkEAs282Gbw95rfHT0QPBEKIbhpNfXaMQ9EQchYUaZ1CDmvQZn1PcRWpejTOiyQRQLkeKFV9fwzvgitMQRgzzQOQFhA0YiLNMBND7AtbqB6OwlqwXJSmiQRo6Ng4MWu-FtVHiCFZ_0q0CNcrN57oAOOe2yx4yaz0ajjK0J6UnxywU30SUzsO4gZa5Qrr7VgNOJIhJlhsVs3o6s_eeR5xsrC6VyWujxekDpociYCkkWiv21TDEYDE6Zxv6MVXbfemCPqTT8hCVLLuAK5JzPyff40T2wP7vkB7lEtk-eFo1Bnnc1SqN34B5Z8Ko0awO-ETaT6jtGpAG1Hm8_c4oG8BAfb3dI6JNKIxW-qe-hfSl35C-D21wqNx_p1AOwsqNJPqjXkP5H07Yq7WI0_WBwviz1DGoB0r0_3KmjxeYHKE87dCKRRmVmMokuy4fVMs2m6RPt9ab7NpsnXn3wihzYrfVw5REzVQyXj3gyPdSHcdITo4Eg5UURfeRx9aj1QmqEHfDhL_K1JXvhBediu6MqB_K-ZDx8W6u8QcW9bYqnxkOPzGjq-4MjRQsCUUST_O70z1iD_2V7bEpnvLqu1Mo9yWOxGz-remTwpxuc8_EQl5l-op1LRDE6Yn6MDIRC0__WT_eNPzZy8AWwv1za1QmWVrhdG2NXJxCCQla9uOe8rKfdnsEhcVy1]--></g></svg>